<?xml version="1.0" encoding="utf-8"?>
<!-- Generator: Adobe Illustrator 25.0.1, SVG Export Plug-In . SVG Version: 6.00 Build 0)  -->
<svg version="1.0" id="Layer_1" xmlns="http://www.w3.org/2000/svg" xmlns:xlink="http://www.w3.org/1999/xlink" x="0px" y="0px"
	 viewBox="0 0 249.4 165.5" style="enable-background:new 0 0 249.4 165.5;" xml:space="preserve">
<path d="M24.6,88.2"/>
<path d="M51.8,85c-3.2,2.4-7.2,3.7-11.2,3.6c-8,0-14-5.8-14-14c0-7.4,4.8-14.3,14.3-14.3c3.6-0.2,7.2,1.1,10,3.4l-2.8,3.7
	c-2-1.7-4.6-2.6-7.2-2.6c-5.8,0-9.4,4.3-9.4,9.8c0,6.8,4.6,10,9.2,10c2.2,0,4.4-0.6,6.3-1.8v-5.1h-6.8v-4h11.4V85L51.8,85z"/>
<path d="M54.9,88.2"/>
<path d="M52.8,88.2"/>
<path d="M76,78.2c0,5.8-4.6,10.3-10.8,10.3c-5.6,0.2-10.3-4.1-10.6-9.7c0-0.2,0-0.3,0-0.5l0,0c0-5.8,4.6-10.3,10.8-10.3
	c5.5-0.4,10.2,3.7,10.6,9.2C76,77.5,76,77.8,76,78.2z M71.4,78.2L71.4,78.2c0.2-3.4-2.4-6.2-5.8-6.3c-0.1,0-0.3,0-0.4,0
	c-3.6,0-6,2.8-6,6.3l0,0c-0.1,3.4,2.7,6.3,6.1,6.3c0,0,0.1,0,0.1,0C69.2,84.5,71.4,81.7,71.4,78.2z"/>
<path d="M77.8,88.2"/>
<path d="M75.8,88.2"/>
<rect x="78.9" y="60.3" width="4.6" height="27.8"/>
<path d="M86.8,88.2"/>
<path d="M84.6,88.2"/>
<path d="M107.4,88.2h-4.3v-2.6c-1.2,1.8-3.8,2.9-6.6,2.9c-5.2,0-10-3.8-10-10.3l0,0c0-4.8,2.8-10.3,10.2-10.3c2.8,0,5.2,1.2,6.2,2.8
	v-10h4.6C107.5,60.6,107.4,88.2,107.4,88.2z M102.9,78.2c0.2-3.3-2.3-6.1-5.6-6.3c-0.1,0-0.2,0-0.4,0c-2.8,0-5.8,2-5.8,6.3
	c0,3.4,2.2,6.3,6,6.3C100.6,84.5,102.9,81.9,102.9,78.2z"/>
<path d="M110.2,88.2"/>
<path d="M108.6,88.2"/>
<path d="M126,82.3c0,4-3.2,6.2-7.4,6.2c-4.8,0-8.2-2.2-8.3-2.6l2-3.2c1.8,1.4,4.1,2.1,6.3,2.2c2,0,2.8-0.8,2.8-2.2s-1.8-2-4.2-2.8
	c-3.2-1.2-6.2-2.2-6.2-5.8l0,0c0-3.8,3.2-6.2,7.2-6.2c2.6-0.1,5.2,0.6,7.4,2l-1.8,3.4c-1.6-1-3.5-1.6-5.4-1.8c-1.8,0-2.8,0.8-2.8,2
	c0,1.7,2.8,2.4,4.2,2.8C122.6,77.3,126,78.5,126,82.3z"/>
<path d="M127.8,88.2"/>
<path d="M162,88.2"/>
<rect x="163.2" y="61.6" width="4.6" height="4.3"/>
<rect x="163.2" y="68.2" width="4.6" height="20"/>
<path d="M170.9,88.2"/>
<path d="M169.6,88.2"/>
<path d="M184.8,87.1c-1.5,1-3.3,1.5-5.1,1.4c-4,0-6.2-2-6.2-6.2V71.7h-3.1v-3.7h3.1v-6.6h4.6v6.6h5.8v3.7h-5.8v9.8
	c-0.1,0.8,0.2,1.6,0.6,2.3c0.6,0.4,1.3,0.6,2,0.6c1,0,1.9-0.2,2.8-0.6L184.8,87.1z"/>
<path d="M185.2,88.2"/>
<path d="M184,88.2"/>
<path d="M204.6,88.2H200V77.6c0-3.4-0.6-5.8-4-5.8c-4,0-4.2,3.8-4.2,6.2v10.2h-4.6v-28h4.6v9.8c1.3-1.6,3.3-2.5,5.4-2.3
	c2.1-0.1,4.1,0.6,5.6,2c2,2,2,5.2,2,6.3v12h-0.2V88.2z"/>
<path d="M207.6,88.2"/>
<path d="M205.5,88.2"/>
<path d="M222.8,82.3c0,4-3.2,6.2-7.4,6.2c-4.8,0-8.2-2.2-8.4-2.6l2-3.2c1.8,1.4,4.1,2.1,6.4,2.2c2,0,2.8-0.8,2.8-2.2s-1.8-2-4.2-2.8
	c-3.2-1.2-6.2-2.2-6.2-5.8l0,0c0-3.8,3.2-6.2,7.2-6.2c2.6-0.1,5.2,0.6,7.4,2l-1.8,3.4c-1.6-1-3.5-1.6-5.4-1.8c-1.8,0-2.8,0.8-2.8,2
	c0,1.7,2.8,2.4,4.2,2.8C219.6,77.3,222.8,78.5,222.8,82.3z"/>
<path d="M224.6,88.2"/>
<path d="M127.8,88.2"/>
<path d="M159.2,88.2h-4.6V77.6c0-3.4-0.6-5.8-4-5.8c-4,0-4.2,3.8-4.2,6.2v10.2h-4.6V77.7c0-3.4-0.6-5.8-4-5.8
	c-3.6,0-4.2,3.2-4.2,5.8v10.6h-4.6v-20h4.4v2.3c1.1-1.6,2.8-2.8,5.8-2.8c2.5-0.2,4.9,1.2,6,3.4c1.5-2.2,4-3.5,6.6-3.4
	c2.1-0.1,4.1,0.6,5.6,2c2,2,2,5.2,2,6.3v12L159.2,88.2z"/>
<path d="M160.2,88.2"/>
<path d="M78,105"/>
<path d="M84.9,101.7c0,1.1,0,3.2-2.9,3.2c-2.9,0-2.9-2.4-2.9-3.2v-4h1.7v4c0,1.1,0.3,1.7,1.4,1.7c1.4,0,1.4-1.2,1.4-1.7v-4h1.7v4
	H84.9z"/>
<path d="M86,105"/>
<path d="M86.2,105"/>
<polygon points="93.4,105 92.2,105 88.8,100.8 88.8,105 87.4,105 87.4,97.9 88.8,97.9 92,102.2 92,97.9 93.4,97.9 "/>
<path d="M94.6,105"/>
<path d="M94.6,105"/>
<rect x="95.8" y="97.9" width="1.7" height="6.9"/>
<path d="M98.6,105"/>
<path d="M98.8,105"/>
<polygon points="106.2,97.9 103.4,105 101.8,105 99.2,97.9 100.9,97.9 102.6,102.8 104.4,97.9 "/>
<path d="M106.6,105"/>
<path d="M106.6,105"/>
<polygon points="112.8,105 107.8,105 107.8,97.9 112.8,97.9 112.8,99.4 109.4,99.4 109.4,100.8 112.4,100.8 112.4,102.2 
	109.4,102.2 109.4,103.6 112.8,103.6 "/>
<path d="M113.5,105"/>
<path d="M114,105"/>
<path d="M121.2,105h-1.8l-1.6-2.4h-0.9v2.4h-1.7v-7.1h2.6c0.8-0.1,1.6,0.1,2.2,0.6c0.8,0.9,0.8,2.4-0.2,3.2
	c-0.2,0.2-0.4,0.3-0.7,0.4L121.2,105z M119.2,100.3c0-0.9-0.8-0.9-1.4-0.9h-0.8v2h0.8C118.2,101.3,119.2,101.3,119.2,100.3z"/>
<path d="M121.8,105"/>
<path d="M121.8,105"/>
<path d="M127.8,103c0,1.4-1.1,2.2-2.6,2.2c-1,0-2-0.3-2.8-0.8l0.6-1.2c0.7,0.4,1.5,0.6,2.2,0.6c0.8,0,1.1-0.2,1.1-0.8
	s-0.8-0.8-1.4-0.8c-1.1-0.2-2.2-0.8-2.2-2.2c0-1.2,1.1-2,2.6-2c0.8-0.1,1.6,0.1,2.3,0.6l-0.6,1.2c-0.2,0-0.9-0.6-1.8-0.6
	c-0.6,0-1.1,0.2-1.1,0.6s0.6,0.6,1.4,1.1C126.8,101.1,127.8,101.6,127.8,103z"/>
<path d="M128.4,105"/>
<path d="M128.8,105"/>
<rect x="130" y="97.9" width="1.7" height="6.9"/>
<path d="M132.6,105"/>
<path d="M132.8,105"/>
<polygon points="139.2,99.4 137.2,99.4 137.2,105 135.4,105 135.4,99.4 133.2,99.4 133.2,97.9 139.2,97.9 "/>
<path d="M139.8,105"/>
<path d="M139.8,105"/>
<polygon points="147.4,97.9 144.8,102.2 144.8,105 142.9,105 142.9,102.2 140.4,97.9 142.4,97.9 144,100.5 145.6,97.9 "/>
<path d="M148,105"/>
<path d="M148,105"/>
<path d="M160.3,101.6c0,2-1.7,3.7-3.7,3.7c0,0,0,0,0,0c-1.9,0.1-3.6-1.4-3.6-3.4c0-0.1,0-0.2,0-0.3l0,0c0-2,1.7-3.7,3.7-3.6
	c0,0,0,0,0,0c2,0,3.6,1.5,3.6,3.5C160.4,101.5,160.4,101.5,160.3,101.6L160.3,101.6z M158.8,101.6L158.8,101.6
	c0.1-1.2-0.8-2.2-2-2.2c-1.1,0-2,0.9-2,2c0,0.1,0,0.2,0,0.2l0,0c-0.1,1.2,0.8,2.2,2,2.2c0,0,0,0,0,0
	C158,103.7,158.8,102.7,158.8,101.6L158.8,101.6z"/>
<path d="M161.2,105"/>
<path d="M161.2,105"/>
<polygon points="167.2,99.4 164,99.4 164,101 166.8,101 166.8,102.2 164,102.2 164,105 162.3,105 162.3,97.9 167.2,97.9 "/>
<path d="M168,105"/>
<path d="M168,105"/>
<polygon points="178.3,105 173.4,105 173.4,97.9 174.9,97.9 174.9,103.6 178.3,103.6 "/>
<path d="M178.8,105"/>
<path d="M178.8,105"/>
<path d="M186.9,101.6c0,2-1.7,3.7-3.7,3.7c0,0,0,0,0,0c-1.9,0.1-3.6-1.4-3.6-3.4c0-0.1,0-0.2,0-0.3l0,0c0-2,1.7-3.7,3.7-3.6
	c0,0,0,0,0,0c2,0,3.6,1.5,3.6,3.5C186.9,101.5,186.9,101.5,186.9,101.6L186.9,101.6z M185.2,101.6L185.2,101.6
	c0.1-1.2-0.8-2.2-2-2.2c-1.1,0-2,0.9-2,2c0,0.1,0,0.2,0,0.2l0,0c-0.1,1.2,0.8,2.2,2,2.2c0,0,0,0,0,0
	C184.3,103.7,185.2,102.7,185.2,101.6L185.2,101.6z"/>
<path d="M187.8,105"/>
<path d="M187.8,105"/>
<polygon points="194.9,105 193.6,105 190.3,100.8 190.3,105 188.8,105 188.8,97.9 190.2,97.9 193.4,102.2 193.4,97.9 194.9,97.9 "/>
<path d="M196,105"/>
<path d="M196,105"/>
<path d="M196.2,105"/>
<path d="M204,101.6c0,0.9-0.4,1.8-1.1,2.4c-0.9,0.8-2,1.1-3.2,1.1h-2.4v-7.1h2.8c1-0.1,2,0.3,2.8,0.9
	C203.7,99.6,204,100.6,204,101.6z M202.2,101.6c0-0.6-0.2-1.2-0.6-1.6c-0.4-0.4-1-0.7-1.6-0.6h-1.1v4.3h0.8c0.6,0.1,1.3-0.1,1.8-0.6
	C202,102.7,202.3,102.2,202.2,101.6L202.2,101.6z"/>
<path d="M204.6,105"/>
<path d="M204.6,105"/>
<path d="M212.8,101.6c0,2-1.7,3.7-3.7,3.7c0,0,0,0,0,0c-1.9,0.1-3.6-1.5-3.6-3.4c0-0.1,0-0.2,0-0.2l0,0c0-2,1.7-3.7,3.7-3.6
	c0,0,0,0,0,0c1.9-0.1,3.6,1.4,3.6,3.4C212.8,101.4,212.8,101.5,212.8,101.6z M211.2,101.6L211.2,101.6c0.1-1.2-0.8-2.2-2-2.2
	c-1.1,0-2,0.9-2,2c0,0.1,0,0.2,0,0.2l0,0c-0.1,1.2,0.8,2.2,2,2.2c0,0,0,0,0,0C210.3,103.7,211.2,102.7,211.2,101.6L211.2,101.6z"/>
<path d="M213.6,105"/>
<path d="M213.6,105"/>
<polygon points="220.8,105 219.6,105 216.3,100.8 216.3,105 214.8,105 214.8,97.9 216.2,97.9 219.4,102.2 219.4,97.9 220.8,97.9 "/>
<path d="M222,105"/>
</svg>
