<svg id="svg" version="1.1" xmlns="http://www.w3.org/2000/svg" xmlns:xlink="http://www.w3.org/1999/xlink" width="400" height="292.3179692718771" viewBox="0, 0, 400,292.3179692718771"><g id="svgg"><path id="path0" d="M274.148 106.986 C 274.148 108.821,274.245 109.598,274.482 109.669 C 274.666 109.724,275.898 110.092,277.221 110.487 C 281.971 111.904,287.297 114.928,290.982 118.300 C 293.722 120.807,294.630 121.060,296.118 119.731 C 296.860 119.068,296.982 118.786,296.956 117.794 C 296.863 114.211,282.739 105.580,275.298 104.560 L 274.148 104.403 274.148 106.986 M272.474 111.583 C 272.119 111.938,272.244 116.506,272.612 116.617 C 279.012 118.550,282.021 120.129,286.264 123.781 C 288.685 125.865,289.560 126.072,290.961 124.893 C 293.063 123.124,291.642 120.791,286.195 117.068 C 281.822 114.078,273.361 110.696,272.474 111.583 M270.795 118.708 C 270.716 118.914,270.687 120.087,270.730 121.315 L 270.808 123.546 273.231 124.384 C 276.261 125.432,278.160 126.513,281.057 128.837 C 284.269 131.415,286.707 131.087,286.707 128.079 C 286.707 125.531,279.374 120.506,273.480 119.015 C 272.599 118.792,271.666 118.547,271.408 118.471 C 271.146 118.394,270.876 118.498,270.795 118.708 M262.244 127.025 C 261.208 127.224,259.991 127.577,259.540 127.811 C 259.088 128.044,258.673 128.190,258.618 128.134 C 258.562 128.078,258.577 130.494,258.651 133.503 C 258.735 136.963,258.686 139.086,258.517 139.280 C 258.370 139.449,258.463 139.425,258.724 139.228 C 258.985 139.030,259.136 138.806,259.060 138.731 C 258.769 138.440,262.925 136.547,264.343 136.325 C 273.950 134.818,279.907 146.572,273.025 153.453 C 270.006 156.472,265.284 157.270,261.590 155.386 C 259.339 154.238,258.926 153.989,259.057 153.858 C 259.129 153.785,258.919 153.497,258.590 153.216 C 258.144 152.835,258.081 152.821,258.342 153.159 C 258.607 153.502,258.685 154.918,258.662 158.959 L 258.631 164.305 259.461 164.734 C 265.077 167.638,274.302 165.511,279.760 160.053 C 293.350 146.463,281.125 123.411,262.244 127.025 " stroke="none" fill="#f7971f" fill-rule="evenodd"></path><path id="path1" d="M264.116 104.330 C 263.186 105.260,263.193 107.071,264.131 107.952 C 264.724 108.509,265.166 108.606,267.939 108.786 C 269.664 108.898,271.723 109.117,272.515 109.271 C 273.306 109.426,273.990 109.552,274.033 109.552 C 274.077 109.552,274.151 108.364,274.197 106.911 L 274.282 104.269 272.144 103.971 C 268.173 103.418,264.881 103.565,264.116 104.330 M264.153 111.507 C 263.128 112.532,263.167 114.335,264.233 115.232 C 264.899 115.792,265.384 115.907,267.773 116.066 C 269.295 116.167,270.923 116.318,271.391 116.402 L 272.240 116.555 272.326 113.991 C 272.428 110.924,272.737 111.152,268.228 110.959 C 264.859 110.814,264.844 110.816,264.153 111.507 M264.116 118.759 C 262.036 120.839,263.678 123.008,267.523 123.261 C 268.909 123.352,270.215 123.492,270.425 123.574 C 270.742 123.695,270.808 123.267,270.808 121.112 C 270.808 118.029,270.976 118.169,267.256 118.130 C 264.957 118.105,264.723 118.152,264.116 118.759 M257.181 128.755 C 242.781 135.629,242.737 156.559,257.107 163.823 C 257.947 164.248,258.669 164.596,258.710 164.596 C 258.751 164.596,258.749 162.193,258.707 159.256 C 258.639 154.612,258.681 153.936,259.028 154.069 C 259.247 154.153,259.018 153.790,258.519 153.261 C 254.860 149.381,254.912 143.214,258.637 139.226 C 259.086 138.746,259.268 138.424,259.041 138.511 C 258.677 138.650,258.638 138.050,258.707 133.329 C 258.749 130.392,258.784 127.989,258.784 127.989 C 258.784 127.990,258.063 128.334,257.181 128.755 " stroke="none" fill="#ec5d24" fill-rule="evenodd"></path><path id="path2" d="M236.328 115.419 C 234.932 115.984,227.489 125.507,228.024 126.043 C 228.059 126.078,228.923 126.226,229.943 126.371 C 230.962 126.517,232.172 126.712,232.631 126.805 C 233.426 126.966,233.524 126.885,234.751 125.055 C 235.459 124.000,236.779 122.335,237.683 121.355 C 238.588 120.375,239.468 119.310,239.638 118.989 C 240.756 116.877,238.564 114.512,236.328 115.419 M241.409 120.614 C 240.279 121.106,235.671 126.632,235.671 127.495 C 235.671 127.615,236.303 128.031,237.074 128.420 C 237.846 128.809,238.815 129.365,239.227 129.656 C 239.640 129.947,240.011 130.142,240.053 130.089 C 240.095 130.036,240.645 129.286,241.275 128.422 C 241.905 127.557,243.006 126.203,243.722 125.413 C 245.590 123.350,245.518 121.445,243.541 120.619 C 242.458 120.166,242.436 120.166,241.409 120.614 M245.145 126.854 C 244.467 127.552,243.364 128.883,242.695 129.811 L 241.477 131.499 242.423 132.483 C 242.943 133.024,243.727 134.039,244.164 134.739 L 244.960 136.011 246.015 134.329 C 246.595 133.404,247.751 131.843,248.585 130.860 C 251.900 126.952,248.686 123.208,245.145 126.854 M56.647 127.201 C 47.887 128.284,42.619 132.945,42.619 139.613 C 42.619 147.046,46.500 149.502,60.541 150.948 C 68.248 151.742,69.739 152.320,69.739 154.516 C 69.739 156.905,66.927 158.268,61.991 158.272 C 55.704 158.276,52.104 156.204,52.104 152.580 L 52.104 151.770 46.862 151.770 L 41.620 151.770 41.729 154.269 C 42.089 162.503,49.758 166.893,62.893 166.384 C 75.005 165.915,80.828 161.781,80.828 153.650 C 80.828 145.784,77.137 143.335,62.921 141.768 C 54.370 140.826,53.324 140.448,53.384 138.320 C 53.443 136.242,56.074 135.070,60.655 135.082 C 65.726 135.094,68.329 136.407,68.909 139.245 L 69.093 140.147 74.226 140.220 L 79.359 140.292 79.359 138.974 C 79.359 130.925,69.185 125.651,56.647 127.201 M99.580 127.212 C 88.117 128.423,81.120 135.860,81.125 146.827 C 81.131 159.198,89.417 166.360,103.674 166.319 C 117.554 166.279,125.852 158.959,125.852 146.754 C 125.852 133.431,115.264 125.556,99.580 127.212 M126.761 128.360 C 126.366 129.390,126.835 152.978,127.285 154.686 C 129.377 162.629,135.025 166.292,145.224 166.320 C 154.183 166.345,159.622 163.735,162.279 158.136 C 163.981 154.549,164.061 153.742,164.061 140.161 L 164.061 127.989 159.138 127.989 L 154.214 127.989 154.127 139.947 C 154.030 153.329,154.010 153.471,151.953 155.462 C 148.986 158.333,141.858 158.383,139.027 155.552 C 137.036 153.561,136.959 153.022,136.808 139.880 L 136.673 128.123 131.791 128.050 C 127.751 127.990,126.883 128.043,126.761 128.360 M166.110 128.167 C 166.012 128.265,165.932 136.682,165.932 146.872 L 165.932 165.397 170.739 165.397 L 175.546 165.397 175.615 153.264 L 175.685 141.130 184.060 153.269 L 192.436 165.408 198.355 165.336 L 204.275 165.264 204.275 146.693 L 204.275 128.123 199.466 128.123 L 194.656 128.123 194.522 140.006 L 194.389 151.889 186.139 139.939 L 177.889 127.989 172.089 127.989 C 168.898 127.989,166.208 128.069,166.110 128.167 M206.211 128.147 C 206.102 128.256,206.012 136.691,206.012 146.890 L 206.012 165.435 218.637 165.332 C 229.506 165.244,231.486 165.167,232.866 164.775 C 240.485 162.615,244.973 156.648,245.462 148.029 C 246.023 138.125,240.968 130.654,232.324 128.616 C 230.328 128.145,206.638 127.720,206.211 128.147 M286.891 128.162 C 286.479 128.573,286.687 151.694,287.122 153.852 C 288.820 162.277,294.768 166.335,305.411 166.331 C 315.645 166.326,321.108 162.882,323.518 154.915 C 323.875 153.734,323.960 151.445,324.046 140.742 L 324.148 127.977 319.121 128.050 L 314.095 128.123 313.961 140.281 C 313.812 153.886,313.805 153.931,311.736 155.681 C 308.415 158.488,300.942 158.208,298.641 155.191 C 297.024 153.071,297.013 152.979,296.864 140.013 L 296.727 128.123 291.901 128.050 C 289.246 128.010,286.992 128.060,286.891 128.162 M325.985 132.265 L 325.985 136.540 331.730 136.540 L 337.475 136.540 337.475 150.969 L 337.475 165.397 342.285 165.397 L 347.094 165.397 347.094 150.969 L 347.094 136.540 352.705 136.540 L 358.317 136.540 358.317 132.265 L 358.317 127.989 342.151 127.989 L 325.985 127.989 325.985 132.265 M107.005 136.949 C 111.963 138.241,114.485 141.478,114.492 146.560 C 114.501 153.379,110.862 156.707,103.392 156.711 L 99.771 156.713 97.729 155.704 C 93.701 153.713,91.885 150.061,92.468 145.124 C 93.206 138.859,99.896 135.098,107.005 136.949 M227.159 137.193 C 232.560 138.337,235.161 141.687,234.795 147.029 C 234.377 153.122,230.869 155.401,221.443 155.703 L 216.700 155.855 216.700 146.331 L 216.700 136.807 221.042 136.812 C 223.740 136.814,226.056 136.959,227.159 137.193 M223.542 139.329 C 222.611 143.036,222.945 147.791,224.181 148.430 C 226.752 149.760,228.051 148.325,228.291 143.888 C 228.370 142.418,228.513 140.833,228.609 140.366 C 228.807 139.400,228.252 139.141,225.221 138.787 C 223.758 138.617,223.717 138.630,223.542 139.329 M230.499 141.817 C 229.841 145.795,230.629 148.831,232.318 148.831 C 233.537 148.831,233.025 143.275,231.644 141.520 C 230.902 140.576,230.695 140.630,230.499 141.817 M298.780 147.695 C 298.887 151.616,299.364 153.709,300.281 154.276 C 300.715 154.544,301.177 151.964,301.331 148.416 L 301.471 145.195 300.615 144.475 C 298.815 142.960,298.658 143.236,298.780 147.695 M304.957 144.025 C 304.000 144.410,303.626 145.565,303.444 148.697 C 303.351 150.314,303.095 152.470,302.877 153.489 C 302.394 155.737,302.292 155.627,304.965 155.722 C 307.732 155.819,307.768 155.790,308.220 152.997 C 309.404 145.684,308.309 142.675,304.957 144.025 M285.461 158.653 C 285.143 159.203,284.151 160.517,283.257 161.574 C 279.679 165.802,282.958 169.450,286.752 165.464 C 289.362 162.723,289.340 162.812,287.911 160.681 C 287.236 159.675,286.616 158.580,286.533 158.250 C 286.324 157.421,286.131 157.494,285.461 158.653 M245.804 162.705 C 243.993 164.517,245.157 166.562,249.773 169.676 C 255.633 173.630,265.513 175.928,267.614 173.826 C 269.378 172.062,267.955 169.407,265.243 169.403 C 260.215 169.396,254.864 167.284,250.378 163.536 C 248.066 161.604,247.084 161.426,245.804 162.705 M288.644 166.375 C 286.112 169.371,285.986 171.046,288.221 171.980 C 289.678 172.589,290.674 172.112,292.593 169.888 C 295.005 167.093,295.451 166.199,294.433 166.199 C 294.291 166.199,293.414 165.718,292.483 165.130 C 290.423 163.830,290.934 163.664,288.644 166.375 M240.769 167.692 C 235.901 171.789,252.757 181.690,264.608 181.696 C 267.516 181.697,268.270 181.182,268.270 179.194 C 268.270 177.433,267.231 176.620,264.976 176.619 C 258.156 176.614,250.588 173.497,244.905 168.351 C 243.128 166.741,242.095 166.577,240.769 167.692 M296.042 168.791 C 295.399 169.642,294.251 171.015,293.491 171.842 C 291.409 174.107,291.219 175.839,292.934 176.913 C 294.851 178.112,297.414 176.191,301.064 170.818 C 302.813 168.242,302.876 168.444,300.180 167.964 C 299.016 167.756,297.871 167.509,297.637 167.415 C 297.331 167.291,296.882 167.679,296.042 168.791 M235.613 172.854 C 231.543 176.490,245.819 186.252,258.337 188.392 C 265.371 189.594,268.270 189.022,268.270 186.431 C 268.270 184.449,267.580 184.044,263.791 183.804 C 255.030 183.249,246.605 179.759,240.652 174.218 C 238.041 171.788,237.092 171.532,235.613 172.854 " stroke="none" fill="#444444" fill-rule="evenodd"></path><path id="path3" d="" stroke="none" fill="#708c2c" fill-rule="evenodd"></path><path id="path4" d="" stroke="none" fill="#74442c" fill-rule="evenodd"></path></g></svg>