<svg id="svg" version="1.1" xmlns="http://www.w3.org/2000/svg" xmlns:xlink="http://www.w3.org/1999/xlink" width="400" height="293.40000000000003" viewBox="0, 0, 400,293.40000000000003"><g id="svgg"><path id="path0" d="M48.200 2.809 C 21.436 4.454,2.252 29.339,7.426 55.700 C 11.079 74.309,26.338 88.636,45.125 91.099 C 47.134 91.362,56.830 91.400,122.698 91.400 L 197.975 91.400 197.882 92.050 C 197.831 92.408,197.388 96.930,196.899 102.100 C 196.410 107.270,195.784 113.840,195.509 116.700 C 189.134 182.865,186.981 205.572,186.788 208.700 C 184.366 247.877,208.099 275.281,254.600 287.004 C 258.603 288.013,267.580 289.887,267.724 289.743 C 267.768 289.699,267.985 287.781,268.207 285.481 C 268.428 283.182,268.831 279.005,269.101 276.200 C 269.371 273.395,270.943 257.015,272.594 239.800 C 274.245 222.585,275.777 206.655,275.998 204.400 C 276.218 202.145,276.667 197.510,276.994 194.100 C 277.322 190.690,278.040 183.220,278.592 177.500 C 279.143 171.780,280.810 154.410,282.295 138.900 C 283.781 123.390,285.177 108.855,285.398 106.600 C 285.618 104.345,286.070 99.665,286.401 96.200 C 287.349 86.301,287.970 79.841,288.402 75.400 C 290.980 48.918,291.031 48.259,290.793 44.500 C 289.450 23.273,274.345 6.728,253.044 3.152 L 250.500 2.724 150.600 2.690 C 95.655 2.671,49.575 2.725,48.200 2.809 M303.200 26.672 C 303.200 26.712,303.067 28.084,302.904 29.722 C 302.741 31.360,302.203 36.930,301.708 42.100 C 301.213 47.270,299.950 60.410,298.901 71.300 C 297.851 82.190,296.408 97.175,295.694 104.600 C 294.979 112.025,294.037 121.790,293.600 126.300 C 293.164 130.810,291.994 142.960,291.001 153.300 C 290.008 163.640,288.836 175.835,288.396 180.400 C 287.956 184.965,287.370 191.040,287.095 193.900 C 286.820 196.760,286.463 200.450,286.300 202.100 C 286.138 203.750,285.781 207.440,285.508 210.300 C 284.624 219.534,282.416 242.471,281.600 250.900 C 279.927 268.184,277.800 290.342,277.800 290.493 C 277.800 290.580,280.613 290.601,284.050 290.539 C 333.255 289.656,373.048 251.761,376.603 202.400 C 376.833 199.202,377.411 193.122,383.101 134.100 C 383.811 126.730,384.660 117.910,384.987 114.500 C 385.315 111.090,386.128 102.630,386.795 95.700 C 387.461 88.770,388.591 77.025,389.304 69.600 C 390.018 62.175,390.735 54.750,390.899 53.100 C 391.063 51.450,391.647 45.375,392.197 39.600 C 392.747 33.825,393.253 28.538,393.322 27.850 L 393.447 26.600 348.323 26.600 C 323.505 26.600,303.200 26.632,303.200 26.672 M385.546 36.350 C 385.486 36.873,385.234 39.434,384.986 42.043 L 384.536 46.786 371.718 46.843 C 357.568 46.906,358.115 46.856,356.912 48.186 C 356.301 48.862,356.236 50.742,356.799 51.456 C 357.977 52.948,357.442 52.893,371.458 52.957 L 384.015 53.014 383.909 53.657 C 383.850 54.011,383.618 56.145,383.394 58.400 C 383.170 60.655,382.932 62.973,382.866 63.550 L 382.745 64.600 363.472 64.600 L 344.200 64.600 344.200 64.150 C 344.200 63.903,344.425 61.495,344.700 58.800 C 344.975 56.105,345.200 53.833,345.200 53.750 C 345.200 53.667,346.370 53.600,347.800 53.600 C 350.675 53.600,350.933 53.465,349.683 52.613 C 343.490 48.395,343.888 40.737,350.468 37.498 C 354.443 35.541,355.296 35.459,372.078 35.427 L 385.656 35.400 385.546 36.350 M340.118 70.550 C 340.052 71.073,339.819 73.345,339.600 75.600 C 339.381 77.855,339.153 79.993,339.092 80.350 L 338.982 81.000 332.991 81.000 C 328.333 81.000,326.999 80.944,326.997 80.750 C 326.991 80.274,328.028 70.099,328.107 69.850 C 328.169 69.657,329.568 69.600,334.212 69.600 L 340.238 69.600 340.118 70.550 M382.285 70.250 C 382.186 70.967,381.200 80.593,381.200 80.843 C 381.200 80.929,372.505 81.000,361.877 81.000 L 342.555 81.000 342.671 80.150 C 342.735 79.683,342.974 77.320,343.203 74.900 C 343.432 72.480,343.661 70.297,343.713 70.050 L 343.808 69.600 363.091 69.600 L 382.375 69.600 382.285 70.250 M380.799 85.350 C 380.799 85.543,380.574 87.950,380.301 90.700 C 380.027 93.450,379.803 95.813,379.802 95.950 C 379.800 96.149,374.287 96.200,352.905 96.200 L 326.010 96.200 326.101 95.650 C 326.151 95.348,326.378 93.030,326.605 90.500 C 326.833 87.970,327.061 85.698,327.113 85.450 L 327.208 85.000 354.004 85.000 C 379.391 85.000,380.800 85.018,380.799 85.350 M353.268 100.695 C 353.105 102.627,353.483 103.687,354.726 104.781 C 356.473 106.318,356.181 106.284,368.174 106.354 L 378.848 106.417 378.738 107.158 C 378.677 107.566,378.421 110.128,378.169 112.850 L 377.711 117.800 358.255 117.800 L 338.800 117.800 338.802 117.250 C 338.804 116.947,338.983 114.720,339.200 112.300 C 339.417 109.880,339.596 107.743,339.598 107.550 C 339.600 107.231,339.887 107.200,342.800 107.200 C 345.890 107.200,346.901 106.987,345.188 106.698 C 342.088 106.174,339.488 103.485,339.390 100.700 C 339.331 99.036,338.566 99.200,346.397 99.200 L 353.395 99.200 353.268 100.695 M96.236 105.950 C 95.989 108.563,95.157 117.225,94.389 125.200 C 93.620 133.175,92.411 145.730,91.701 153.100 C 90.991 160.470,89.821 172.620,89.101 180.100 C 88.380 187.580,87.206 199.775,86.491 207.200 C 83.678 236.412,82.554 248.073,81.695 256.949 C 81.203 262.036,80.800 266.378,80.800 266.599 C 80.800 266.999,80.898 267.000,121.288 267.000 L 161.775 267.000 161.890 266.150 C 161.953 265.683,163.311 251.665,164.909 235.000 C 166.506 218.335,168.442 198.175,169.210 190.200 C 169.978 182.225,171.192 169.625,171.907 162.200 C 172.622 154.775,173.748 143.075,174.410 136.200 C 175.072 129.325,176.058 119.065,176.600 113.400 C 177.143 107.735,177.638 102.672,177.700 102.150 L 177.814 101.200 137.250 101.200 L 96.685 101.200 96.236 105.950 M356.211 129.387 C 363.539 138.357,363.144 138.013,363.691 135.908 C 364.639 132.253,363.340 127.890,360.351 124.689 L 358.999 123.242 360.550 123.113 C 362.786 122.928,367.503 122.624,370.400 122.479 L 372.900 122.354 374.027 124.527 C 383.122 142.066,364.545 159.113,345.033 151.132 C 333.679 146.489,332.570 131.940,343.000 124.468 C 344.843 123.148,348.564 121.224,349.311 121.205 C 349.427 121.202,352.532 124.884,356.211 129.387 M348.607 133.325 C 344.316 136.935,349.181 143.104,355.100 141.561 C 356.409 141.220,356.556 141.519,352.791 136.875 C 349.108 132.332,349.446 132.619,348.607 133.325 M358.505 155.294 C 377.091 158.309,378.015 181.348,359.800 187.592 C 356.020 188.888,356.491 188.861,336.336 188.945 L 317.972 189.021 318.086 188.161 C 318.148 187.687,318.334 185.545,318.498 183.400 C 318.662 181.255,318.851 178.983,318.918 178.350 L 319.039 177.200 326.720 177.200 C 330.944 177.200,334.400 177.172,334.400 177.139 C 334.400 177.105,334.087 176.456,333.705 175.697 C 328.253 164.859,342.945 152.771,358.505 155.294 M350.177 168.012 C 347.509 168.970,345.966 171.447,346.592 173.770 C 347.793 178.229,356.089 178.361,358.284 173.956 C 360.364 169.783,355.395 166.141,350.177 168.012 " stroke="none" fill="#9c0404" fill-rule="evenodd"></path><path id="path1" d="" stroke="none" fill="#a00404" fill-rule="evenodd"></path><path id="path2" d="" stroke="none" fill="#a00404" fill-rule="evenodd"></path><path id="path3" d="" stroke="none" fill="#a00404" fill-rule="evenodd"></path><path id="path4" d="" stroke="none" fill="#a00404" fill-rule="evenodd"></path></g></svg>