<?xml version="1.0" encoding="utf-8"?>
<!-- Generator: Adobe Illustrator 19.2.1, SVG Export Plug-In . SVG Version: 6.00 Build 0)  -->
<svg version="1.1" id="layer" xmlns="http://www.w3.org/2000/svg" xmlns:xlink="http://www.w3.org/1999/xlink" x="0px" y="0px"
	 viewBox="0 0 652 652" style="enable-background:new 0 0 652 652;" xml:space="preserve">
<style type="text/css">
	.st0{fill:#90282A;}
</style>
<path d="M145.4,254.5l-0.6,0.1c-3.3,1.7-4.3,4.2-4.9,6.1l-0.7,0.2l-0.7-0.1l-0.1-0.4l0,0.1l-0.1,0.4c0.8,0,1.6,0.2,2.3,0.5l0.5,0.1
	c0.2-1.3,0.6-3.1,1.9-4l0.1,0c0.5,0,1.2,1,1,2.8l-0.3,0.6l-0.5,1.2l0.8,0.6l0.8,0.7l0.8,0.6l0.7-0.9l0.2-0.4c0.5,0,2.1,0,2.8-0.1
	c-1-0.3-1.7-0.4-3-0.7c0.3-2.9,0.7-5.9-0.6-7.2l-0.4-0.2L145.4,254.5 M145.4,255.5c0.7,0.9,0.5,3.2,0.3,5.2l-0.1,0.9l0,0.5l-0.7-0.6
	l0.1-0.2l0.5-1.1c0.1-1.5-0.2-2.7-0.9-3.4l-0.6-0.5L145.4,255.5"/>
<path d="M70.5,380.2l0.2,0.2l-0.2,0.3l-0.3-0.4l-0.9-0.5l-0.7-0.2l-0.5,1.4l0.5-0.1l0.2,1.3l0.9,0.9c0.1-0.7,0.3-1.3,0.4-2l0.5-0.2
	l0.4-0.3l-0.3-0.7l-0.3,0.2"/>
<path d="M31.4,276.3l-0.4-0.4c0.2-1.6,0.8-4.8,1-5.8l0.4-0.3c0.8,0,2.6-0.1,3.9-0.1h0l0.3,0.6c-1.1,1.5-3.5,4.5-4.7,5.9L31.4,276.3
	 M43.1,272.8l-0.4-0.4v0c0-0.7,0.3-2.7,0.3-3l0.3-0.4c0.2-0.1,3.9-0.6,5.4-0.8l-0.5,0.4c-0.9,0.8-3.3,3.1-4.8,4.1L43.1,272.8
	 M40.3,268l1.6-2c-0.1,0.8,0,1.5-0.1,1.9C41.8,267.9,41,267.9,40.3,268 M34.4,259.7l-0.3,0.1l-0.4,0.7c-0.9,2.2-1.7,4.5-2.4,6.8
	l-0.5,1.1l-0.2,0.1l-0.2,0l-0.9-0.1l-0.1,0l-0.3,0.2c-0.3,0.6-0.6,1-1.1,1.3l0,0.6c2,2.1,1.1,10.9,1.1,12.2l0,1.7
	c-0.1,1.4-0.2,10.6-0.2,10.9c0,0.8,0,2.4,0,3.2c0.1,3.6,0.6,13.2,0.9,14.8l0.1-0.2h0l0.1-0.1l0,0l0.7-0.2l0.1,0l0,0l0.2,0l0.1-0.4
	l0-0.3l-0.3-1.3L31,311l0.1,0c-0.3-3.2-0.9-10.9-0.9-16.1c0-3.7,0.2-7.5,0.4-11.2c0.1-1,0.1-2.8,0.1-3.8l0,0l0.3,0.3l0.1,0l0.4-0.4
	l0.8-1.4c0.6-1.3,1.5-2.4,2.3-3.5c0.5-0.7,1.1-1.4,1.6-2.1c1.1-1.5,2.5-2.6,3.3-3.1l1.9,0c-0.3,1.7-0.6,3.4-0.3,4.9l0.1,0.2
	c0.1,0.3,0.6,1.3,1.4,1.4h0c0.8,0,2.7-1.8,3.9-3.1c1.2-1.3,4-3.6,4.1-3.6l0.1,0l0.4,0.4c-0.1,1.1-0.3,2.6,0.3,3.6l0.3,0.2l0.6-0.4
	l0.1,0c0.7,0,1.3-0.3,1.9-0.4l0.2-0.1l0.9-1.1l0.1-0.2c0.8-0.7,1.7-1,2.3-1.7l0.2-0.1l0.9-0.2l0.6-0.3l0.2-0.3l0-0.1l-0.1-0.3
	l-0.4-0.5l-0.2-0.1l-0.2,0l-0.3,0.1l-1.4,0.9c-1.3,0.9-2.5,1.8-3.8,2.7l-0.4,0.1l-0.1,0l-0.2-0.2c0.1-1.1,0-2.2,0.4-3.2l0.2-0.2
	l0.5-0.2c2-0.3,4.1-0.6,6.1-0.8l0.8-0.1l1.2,0.3l0.1-0.2l0.3-0.2c1-0.2,1.8-0.9,2.9-1l0.8-0.5l0.1-0.1c-0.8,0.2-4.8,0.5-6.2,0.7
	c-2,0.3-4,0.4-6,0.6h-0.1l-0.1,0l-0.3-0.5l-0.2-0.3l-0.3,0l-0.7,0.3l-1.3,1c-0.7,0.1-5.4,0.7-6.8,0.8h0l-0.4-0.4
	c-0.1-1.4,0.1-2.8,1.1-4.6l0-0.3l0-0.1l-0.6-0.5l-0.5,0.3c-1.3,1.5-4.5,5.3-5,6l-0.2,0.2c-0.8,0.1-3.7,0.5-5.1,0.5h0l-0.4-0.5
	c0.4-1.7,1.4-4.5,2.5-6.8l-0.3-1.4l-0.2-0.1L34.4,259.7 M30.4,277l1,0.4l0.2,0l-0.2,0.5l-0.5,0.8l-0.2,0l-0.3,0.1
	C30.4,278.2,30.4,277.6,30.4,277 M44.4,273.3c-1.2,1.1-1.7,1.5-1.9,1.6l-0.4-0.6l0,0l0,0l-0.1-0.7l0.1,0.1l1,0.5l0.8-0.2L44.4,273.3
	 M30.9,269.7l-0.1,0.2c-0.1,0.6-0.5,2.4-0.7,3.9c-0.2-1.3-0.5-2.5-1-3.3l0.7-0.8l0.5,0l0.3,0L30.9,269.7 M38.2,269.1l-0.7,0.6
	l-0.1-0.3l-0.1-0.2L38.2,269.1 M52.4,266.7l0.1,0.2l0,0l-0.7,0.8l-0.2,0.9l-1-0.4l-0.2,0l-0.1,0l0.4-0.4h0l0.5-0.2
	C51.9,267,52.2,266.8,52.4,266.7"/>
<path d="M101.2,290.1l0.3-0.1l0,0L101.2,290.1L101.2,290.1 M124.6,278.3c0,0-4.3,2.5-12.7,4l-0.5,0.3l-1-0.2c-1.3,0.4-2.3,1.2-3,1.8
	l-0.3,0.1l-0.8-0.3l-0.1,0l-0.4,0.9l-1.5,0.8l-0.6-0.1l-0.5,0.2l-0.5,1.1c-0.6,0.4-1.1,0.7-1.5,1.2l-0.1,0.2l-0.2,0.6l0.8,0.3
	l-0.2,0l-0.1,0c-0.6,0-0.4,0.8-0.4,0.9l-0.9,0.2l0.8,0.3l-0.6,0.3c-0.7,0.7-1.4,1.5-2.4,1.7l-1,1.6l0.6,0.1l0.7,0l1,0.2
	c1.2,0.1,1.8,0.2,2.7,0.3l1.3-0.2l1.3,0.2c1.1-0.6,1.3-2.8,2.5-2.9l0.4,0.6l0.1,0l0.3-0.1l-0.2,0.3v1.3l0.6,1.4h0l1.1,0.6l0.2,0
	l0.6,0l0.2,0c0.9,0.1,1.7,0.5,2.5,0.8l0.4-0.1l0.6,0.3l0.2,0l0.3,0.1l0.3,0l0.5,0.2c1.3,0.4,2.6,0.7,3.9,1.1l0.9,0.4l0.3,0l0.5-0.2
	l0.6,0.2l0.1,0l0.3,0.2c0.8,0.3,1.6,0.5,2.3,0.8l0.2,0.3h0.5l-0.6-1.3l-0.7-0.8C119.7,289.5,123.1,281.3,124.6,278.3 M122.5,280.4
	c-1.6,4-3.1,10.6-0.3,17.1l0,0l-0.7-0.3l-0.9-0.2l-0.6,0.1l-0.6-0.2l-0.1,0c-1-0.3-1.9-0.5-2.9-0.8l-0.8-0.2l-1-0.3h-0.1l-0.2-0.1
	l-1-0.3l-0.3,0l-0.2-0.1c-0.7-0.3-1.4-0.6-2.2-0.7l-0.4,0l-0.4,0l-0.7-0.4v0l-0.3-0.9v-0.9h-0.5l-0.4-0.4l0.5-0.4l-0.3-0.4l-0.5-0.8
	l-0.6,0c-1.3,0.1-1.9,1.2-2.3,2l-0.5,0.8l-1-0.1l-1.4,0.2l-0.5-0.1c-0.6-0.1-1.1-0.1-1.9-0.2L99,293c0.7-0.4,1.3-1,1.8-1.5l0.1-0.1
	l0.4-0.2l2.9-1.1l-1.5-0.5l0.1-0.6l-0.3-1l0.8-0.6l0.3-0.2l0.1-0.3l0.3-0.5l0,0l0.4,0.1l0.4-0.2l1.5-0.8l0.2-0.1l0.1-0.2l0.2-0.3
	l0.3,0l0.7-0.1l0.2-0.1l0.2-0.1c0.6-0.5,1.3-1.1,2.3-1.5l0.1,0l0.6,0.1l0.3,0.1l0.3-0.1l0.6-0.3
	C116.9,282.4,120.3,281.3,122.5,280.4"/>
<path d="M44.7,279.6l-0.5,0.6c0.1,0.7,0.6,1.3,0.6,2l0,0.1l0.1,0.1l0.2-0.2l0.4-0.3l0.2-0.2l0.1-0.4l-0.1-0.2l-0.2-1.2v0"/>
<path d="M101.6,371.1c0,0,2.6-2.7,3.8-3.4c0,0.8,0.1,1.8,1.3,3C105.5,370.9,101.6,371.1,101.6,371.1 M100.5,371.1
	c-1.9,0.3-4.2,0.6-6.2,0.9c-0.4-2,1.2-5.1,2.9-5.8c1-0.1,8.2-1,9.9-1.2C106.4,366,102.4,369.7,100.5,371.1 M96.3,373.3
	c-0.6,0.1-1.5,0.2-2.1-0.6c1.5-0.3,3.6-0.6,5.6-0.8C99.1,372.6,97,373.2,96.3,373.3 M119.7,373.1l-1.5-0.2c-1.4-1.9-3.5-2.2-5.1-2.2
	c0.8-0.5,2.6-1.4,3.9-2.3l1.1-0.4l0.1-0.3l-0.1-0.5l-0.1-0.1l-0.1-0.1l-0.5,0l0,0.1l-0.2,0.1l-0.1,0v0.1l-0.1,0.1l-0.1,0l-0.3,0.4
	c-1.3,0.8-2.7,1.6-4.2,2.1c-0.7,0.2-1.4,0.4-2.1,0.4c-0.7,0-1.3-0.2-1.9-0.6c-0.2-0.1-2.8-1.6-0.1-5c1.1-0.1,7,0,8.4,0l0-0.1l0-0.6
	l0.1-0.2l0.4-0.6l-0.1,0l-1,0c-1.4,0.5-6,0.5-6.6,0.2l-0.4-1.1c-0.7,0-0.8,1-1.3,1.4c-1,0.2-9.9,0.9-10,0.9l-0.2-0.6h-0.2l-1,0.6
	c-0.8,0.1-2.2,0.2-3.3,0.3l-1.1,0.1l-1,1.4c1.1,0,4.2-0.3,5-0.4c-1.8,1.7-2.9,3.4-3,5.9c-1.1,0.2-10.7,2-11.3,2.4l-0.7,0.7
	c0.4-0.1,10.3-2.1,12.3-2.3c1.4,1.7,5.6,0.6,7.5-1.2c1.5-0.2,4.9-0.2,6.9-0.4c0,0,2.4,0.7,4.6-0.2c2.4,0.2,3.1,0.6,4.1,1.8
	c0.2,0.6-0.3,1-0.3,1.5l0.4,0.1l1.1-0.2c0.6-0.1,0.9,0.1,1.5,0l0.7-0.9L119.7,373.1"/>
<path d="M67.9,287.8l-0.6,0.5c-0.9,0.9-1.7,1.8-2.7,2.5l-0.6,0.7c-0.4,0.8-0.9,1.5-1.5,2.1l-0.5,0.6c-0.4,0.7-0.6,1.4-0.6,2.2l1-0.6
	c0.6-0.1,1.3,0,2-0.5l0.4-0.1l0.1,0l0.2,0l0.7-0.1c2.3-0.7,4.6-1.2,7-1.5l0.8-0.1l0,0l0.2-0.2l0.1,0l0.3-0.2
	c0.6-0.2,1.2-0.3,1.8-0.3l0.9,0c0.7,0.1,1.3,0.1,2,0.2l0.6-0.1l0.2,0l0.2,0.1l0.2,0.1l0.3,0.5c0,0.1,1.2,12.1,1.3,13.4
	c0,0.8,0.2,1.6,0.2,2.4c0.2,2.1,0.2,4.2,0.2,6.3l-0.2,1.1c0,0.5-0.1,1.1-0.1,1.7l-0.5,1.2c-0.2,0.8,0.2,1.7-0.1,2.7
	c-0.9,0.7-0.3,1.8-0.6,2.7l-0.7,1.3l-0.5,1.1c-0.4,0.6-0.4,1.2-0.3,1.8l-0.4,0.6c-0.1,0.7-0.5,1.2-0.7,1.9l-0.2,0.5
	c0.1,1-0.4,1.9-0.8,2.8l0.1,0.6c-0.3,0.5-0.6,1-0.7,1.6l-0.2,0.8c-0.6,1.5-6,10.7-7.6,12.7c2.9-1.7,8.5-6.1,16-6.1
	c2.8,0,5.9,0.6,9.2,2.3l2.2-0.9c-2-1.8-4.3-6.5-5-8.7c-0.3-0.9-0.7-1.8-0.9-2.7c-0.3-1.3-0.7-2.6-1.1-3.9c-0.2-0.7-0.4-1.3-0.5-2
	c-0.1-0.9-0.4-1.8-0.6-2.6l-0.3-0.9c-0.4-2.7-1-5.3-1.1-8c-0.1-1.7-0.6-3.3-0.5-5l0-0.1c-0.4-1-0.3-2-0.3-3.1l0-0.4
	c-0.2-0.6-0.2-1.2,0.1-1.8l-0.1-0.1l0-0.1l-0.2-0.2c0-1.2,0.2-11.5,0.5-12.9l1.1-0.7l0.1,0h0c0.7,0,1.3,0.3,2,0.3l0.1,0l0.8,0l1.4,0
	l1.5,0.1c0.6-0.4,0-1,0.7-1.2l0.7-0.2l-0.1-1.2l-0.6,0l-1.1,0l-1.2-0.2c0,0,1-0.1,0.3-0.4l0-0.4L91,290l-0.5-1.3
	c-0.8,0-1.6,0.1-2.3,0.3l-0.6-0.4c-1.3,0.1-2.5,0.2-3.8,0.3c-0.9,0.1-1.8,0.2-2.7,0.3l-0.5,0.1l-0.1,0l-1.6-0.1c-0.7,0-1.4,0-2.1,0
	l-0.6,0c-1.4-0.1-2.7-0.3-4-0.7c-0.6-0.1-1.3-0.1-1.8-0.5l-0.6,0l-0.3,0L67.9,287.8 M89.8,289.8L89.8,289.8l-1.2,0.2L89.8,289.8
	 M68.2,288.9l0.2,0l1.1,0.2l0.4,0l0.2,0l1.4,0.4l0.5,0.1c1.2,0.3,2.7,0.6,4.2,0.7l0.7,0l1.1,0l1,0c0.6,0,1.1,0,1.5,0.1l0.2,0
	l0.5-0.1l0.1,0c0.9-0.1,1.8-0.2,2.7-0.3c1-0.1,1.9-0.2,2.9-0.3l0.6-0.1l0.3,0.2l0.2,0.1l-1.4,0.1l4.4,1.6l1.5,0.2l-0.2,0.4l-0.8-0.1
	l-0.6,0l-0.8,0l-0.8,0l-0.1,0l-0.7-0.1l-1.3-0.2h0l-0.3,0l-0.2,0l-0.2,0.1l-0.9,0.6l-0.2,0.1L85,293l-0.1,0.4
	c-0.4,1.6-0.6,12.1-0.6,13.2l0.1,0.4l-0.1,0.3l0,0l0,1.4l0.1,0.7v0.3c0,0.8,0,1.8,0.4,2.8c0,1,0.1,1.9,0.3,2.9
	c0.1,0.7,0.2,1.4,0.2,2c0.1,2,0.4,3.9,0.7,5.7c0.1,0.8,0.3,1.6,0.4,2.3l0.2,0.7l0.1,0.2l0.3,1l0.3,1.5c0.1,0.8,0.3,1.5,0.6,2.2
	c0.5,1.3,0.8,2.6,1.1,3.8c0.1,0.6,0.3,1.2,0.6,1.8l0.4,1c0.5,1.8,2.3,5.6,4.2,8l-0.4,0.2c-3-1.4-6.1-2.1-9.2-2.1
	c-5.1,0-9.3,1.9-12.4,3.7c2.1-3.5,4.6-7.8,5.1-8.9l0.1-0.1l0.3-1l0.5-1.1l0.2-0.3l-0.1-0.4l0-0.2l0-0.1c0.4-0.8,0.8-1.7,0.8-2.8
	l0.1-0.3l0.3-0.6l0.5-1.3l0.3-0.3l0.3-0.4l-0.2-0.5l0.2-0.9c0.2-0.4,0.5-0.9,0.6-1.5l0.4-0.7l0.1-0.1l0.2-0.2l0.1-0.2l0.1-1.4
	l0.1-0.7l0.3-0.2l0.1-0.3c0.2-0.8,0.2-1.5,0.1-2l0-0.8l0-0.1V320l0.2-0.3l0.3-0.6l0-0.1l0-0.1l0.1-1l0-0.4l0.2-1.3l0-0.1l0-1.4
	c0-1.6,0-3.3-0.2-4.9l-0.1-0.9l-0.1-1.5c0-1.2-1-10.5-1.3-13.4v-0.1l-0.1-1.4l-0.5,0.2l-0.5-0.3l-0.5-0.2l-0.3,0l-0.5,0l-0.1,0
	l-0.5-0.1l-1.4-0.1l-1-0.1c-0.8,0-1.5,0.1-2.2,0.4l-0.1,0.1l-0.1,0.1l0,0l-0.4,0.2l-0.1,0l-0.3,0c-2.7,0.4-5,0.9-7.2,1.6l-0.4,0.1h0
	l-0.3,0l-1,0.3l-0.8,0.2h0l0.3-0.4c0.7-0.8,1.3-1.5,1.7-2.3l0.3-0.4c0.9-0.6,1.6-1.4,2.3-2.1l0.5-0.5L68.2,288.9"/>
<path d="M111.2,320.8c-0.6,0-1.8-0.5-1.6-0.8c0.2-0.3,1.2-0.5,2-0.6h0l0.1,0.1l-0.3,1.3L111.2,320.8L111.2,320.8 M139.1,283.1
	l-0.2,0.2l-0.1,0l-0.1,0.2c-3.4,9.5-6.5,24.7-6.6,30.9l-0.1,0.1c-1.1,0.1-2.3-0.1-3.1,1l-0.2-0.3c-0.1-0.2-0.7-1.1-2.5-1.1l-0.3,0
	c-0.6,0-3.2,0.2-4,0.2h0l-0.2-0.2c0-0.3-0.1-4.1-0.3-5.7c-0.1-0.8-0.2-1.6-0.2-2.1l0,0l0.3-1l-0.2-0.2l-1-0.6l0-0.1l-0.4-0.1l0,0
	l-0.2,0.2l-0.3,0.3l-0.7-0.1l0,0l-0.2-0.5l-0.1,0l-0.6-0.1h0l-0.1,0.1c-0.5,1-1.1,3.5-1.4,4.3l-0.8,1.5c-0.9,1.5-1.6,2.9-2,4.7
	l-0.5,1.3l0,0c-1.1,1-9.4,1.8-11.8,2.2c-1,0.2-1.8,0.3-2.6,1l-0.1,0.8l0.6,0.3c0.7,0.2,4.7,0.8,5.3,0.9c1.1,0.1,2.1,0.2,3.2,0.3
	c0.8,0.1,1.5,0.4,2.1,0.9l0.7,0.7l0,0.1c-0.5,2.2-0.1,5.1,0.2,6.6c0.2,0.9,0.5,1.8,0.9,2.7l0.5,0.6l0,0c0,0.3-0.3,3.5-0.4,4.2
	l0.1,0.1h0l0.6-0.1l0.8-0.1l0.4-0.1l0.7-0.6l0.4-1.1l1.2-0.9l0.8-0.7l0-0.1c-0.1-1.2,0.1-2.4,0.3-3.6c0.1-0.9,0.2-1.7,0.4-2.7
	c0.2,0.9,0.2,1.3,0.2,1.9c0,0.6,0.1,1.3,0.1,1.9c0,0.6,0.1,1.3,0.1,1.9l0.6-0.3l0.9-0.8l0.6-0.7h0l0,0c-0.3-1.9,0.4-6.7,0.6-7.7
	c0.1-0.4,0.4-2.4,0.6-3.6l0.5-0.9l0.1,0c0.5,0,1.1-0.1,1.7-0.1c0.9-0.1,1.9-0.2,2.8-0.6l0,0l0.5,0l0.2-0.2l0.1-0.1l0.5-0.1
	c1.2-0.3,2.4-0.4,3.6-0.4l0.1-0.1l0.2-0.2l0.2,0.3l0.7,0.3l0,0l0.6-1.1l0.7-0.5l0.1,0l1.1,0.7l1.4-0.2l0.4-0.3l0.1-0.1l0-0.7
	l-0.4-0.1l-1,0.2l-0.1,0l-0.1,0l-0.2-0.3l-0.3-0.4l0-0.1l0.1,0l-0.3,0l-0.2,0l-0.7-0.4c-0.2-2.4,3.8-26.2,7.3-30.8l0,0l-0.7,0.3
	l-0.2,0l-0.4-0.8l0,0L139.1,283.1 M132.3,315.5l-0.4,0.5l0,0l-0.1,0l-0.3-0.1l-0.4,0.1l-0.5,0.3l-0.8,0l0.1-0.2
	c0.3-0.4,0.7-0.5,1.6-0.5L132.3,315.5L132.3,315.5z M118.2,305.6L118.2,305.6l0.3,0.1l0.9,0.1h0l0.6-0.1l0.3,0.2l0,0l0,0.1l0,0.1
	l0,0.1l0,0.1v0.1c0,0.4,0.1,1,0.2,1.6l0.1,0.7c0.1,1.2,0.2,3.8,0.3,5l0,0.6l0.3,0.9l0.9,0.4h0c0.6,0,2.1-0.1,3.2-0.2l0.9-0.1l0.2,0
	l1.5,0.6l0.5,0.7l0.1,0.1l-1.3,0.2l-0.6,0.1l-0.5,0.3l-0.1,0l-0.1,0l-0.1,0l-0.1,0l-0.1,0c-0.7,0.3-1.5,0.4-2.4,0.5l-1.3,0.1l-0.5,0
	l-0.1,0l-0.2,0.1l-0.1,0L121,318c-0.7,0.5-0.8,1.2-0.9,1.5l0,0.1c-0.1,0.6-0.3,1.5-0.4,2.2c-0.1,0.6-0.2,1.2-0.2,1.4
	c-0.1,0.5-0.8,4.3-0.7,6.8l-0.1-1l0-0.3c0-0.5,0-0.9-0.3-1.7l-1.1-4.1l-0.9,4.2c-0.2,0.7-0.2,1.3-0.3,1.9l-0.1,0.9l0,0.2
	c-0.2,1.1-0.4,2.1-0.3,3.3l0,0c-0.6,0.2-1,0.6-1.3,0.8l-0.2,0.2l-0.1,0.1l-0.1,0.1l-0.5,1.1l0,0.1L113,336l-0.1,0.1
	c0.1-1.2,0.2-2.7,0.2-2.9l0-0.3l-0.1-0.2l-0.1-0.2l-0.1-0.2l-0.3-0.4c-0.4-0.7-0.7-1.5-0.8-2.3c-0.5-2.6-0.5-4.7-0.2-6.2l0-0.3
	l-0.1-0.3l-0.1-0.3l-0.2-0.2l-0.2-0.2l-0.2-0.2l0.5,0l0.2,0l0.4,0l0.3-0.3l0.1-0.1l0.2-0.2l0-0.3l0.2-0.8l0.1-0.3l-0.2-1l-0.9-0.4
	h-0.1l0,0c-1,0.1-2.2,0.3-2.8,1.1l-0.1,1.2l-0.8-0.1c-0.8-0.1-1.6-0.2-2.5-0.2l-0.7-0.1c-0.4-0.1-2.7-0.4-4.1-0.7l0.9-0.2l0.1,0
	c0.6-0.1,1.7-0.2,2.9-0.4c5.7-0.7,8.4-1.2,9.4-2l0.1-0.1l0.1-0.1l0.7-1.6l0-0.2c0.4-1.7,1.1-3,1.9-4.4l0.8-1.6l0,0l0,0l0.4-1.4
	C117.8,306.9,118,306.2,118.2,305.6"/>
<path d="M77.6,351c-0.9,0.1-4.5,0.5-5.4,0.6l-0.9-0.2l-0.5,0.7l-1.3,0.4c-1.6,0.5-3.2,0.9-4.7,1.3c-0.8,0.3-1.6,0.5-2.5,0.6l-0.7,0
	c-0.2,0.6,0.8,2.3,1.5,2.1l2.6-1c0.6-0.2,3.2-1.1,4-1.2c-0.2,1-2,9.4-2.2,10.2l0.7-0.3l0.1,0l0.2-0.3l0.5-0.1h0c0-0.6,1-7.5,2.2-9.5
	l0.9-0.5c1.1-0.3,5.7-0.8,5.9-0.9c2-0.1,3.8-0.2,6.1,0.3l1.1-0.7l0,0l0.3-0.3c-0.6-0.2-2.4-0.6-3.6-0.8
	C80.8,351.1,79.5,350.9,77.6,351"/>
<path d="M58.1,316.5c-0.3-1.3-0.1-2.1-0.2-3.4l0.3-0.6v-1.7C61,311.2,60.4,315.5,58.1,316.5 M58.5,308.7c-0.5,0-1.1,0.1-1.8,0.2
	l-0.1,0c-0.7,0.4-2,3.6-1.9,4.2c0.6,0.7,1.4,2.9,1.3,4.8c-0.2,0.3-2.4,3.3-5.5,4.9l-0.1,0.1c-0.3,0.2-1.7,2.5-1.8,3.4v0.6
	c2.7-1.2,5-2.5,6-3.6c0.3,2-0.5,3.3-1.1,4.6c1.5-1.1,2.3-3.8,2.6-5.9l0.5-0.9c3.9-3.6,6.8-9.9,3.9-11.8
	C60.1,308.9,59.4,308.7,58.5,308.7 M57.1,316.8l0.3,1.3l0.7-0.3c-0.6,0.9-1.4,1.7-2.2,2.5l-0.5,0.7l0-0.2l-1.5,1.7
	c-0.6,0.7-1.8,1.5-3.4,2.3l0.7-1.1c1.4-0.7,3.5-2.1,5.7-5l0.1-0.1l0.2-0.3l0-0.4L57.1,316.8 M57.1,309.9v0.9l0,0.4l0,0.9l0,0l-0.3,1
	l0,1.3l0,1.1c-0.2-1.2-0.6-2.2-1.1-2.9C56,312,56.7,310.4,57.1,309.9L57.1,309.9 M58.5,309.8c0.6,0,1.1,0.1,1.4,0.3l0.7,1.1
	c-0.5-0.8-1.3-1.3-2.2-1.4H58.5"/>
<path d="M116.5,358.8l-0.3,0.1c-0.7,0.1-2.5,0.3-4.1,0.5c-1.2,0.1-2.9,0.2-4.1,0.4l-1.8,0.2c-0.7-0.2-2.1,1-2.1,1
	c2.8-0.7,10.7-1.1,11.4-1.1l1.2,0l0-0.7L116.5,358.8"/>
<polyline points="116.3,363.7 116.4,363.8 116.7,363.8 116.7,363.6 116.4,363.6 "/>
<rect x="116.1" y="363.6" width="0.3" height="0.3"/>
<polyline points="115.8,364.5 115.8,364.7 116.1,364.7 116.1,364.4 115.9,364.4 "/>
<polyline points="115.6,364.4 115.5,364.5 115.6,364.7 115.6,364.7 115.8,364.7 115.8,364.4 "/>
<polyline points="115.3,363.9 115.2,364 115.3,364.1 115.3,364.2 115.6,363.8 115.6,363.4 115.3,363.3 115.3,363.6 "/>
<polyline points="115.7,363.8 115.8,363.8 115.9,363.6 115.6,363.3 115.6,363.8 "/>
<path d="M60.9,368.3l-0.9,0.4l-1.6-0.2l-0.3-0.1l-0.5,0l-0.7,0.1v0l-0.4,0.2l0,0l-0.1,0.1c-0.6,0.3-1.9,0.3-3.2,0
	c-1.4-0.3-3-1.4-3.3-1.6c-0.2-0.3-0.6-0.8-1.2-0.9l-0.5-1.1l-0.3-1.1l-0.8-1l-0.2-0.8l-1.3-0.5l-0.5-0.5l0.5-0.7l-0.3-1l-0.2-0.6
	l-0.1-0.5l-1.3-0.6l0.2-0.7c-0.1-0.7-0.4-1.4-0.7-2l-0.1-0.8c-0.7,0.5-1.5,1.6-1.4,1.8c0.3,0.6,0.5,1,0.9,1.4l0.2,0.6
	c0,0.7,0.2,1.3,0.2,2c0.1,1.1,0.6,2,1.4,2.8c0.6,0.5,1,1.1,1.4,1.8l0.2,0.6l1.5,1.2c0.4,0.4,1.8,1.9,2.4,2.7l0.6,0.4
	c2.2,1.1,5.2,0.9,6.1,0.7l0,0l0.3,0c0.9,0.3,1.4-1.2,1.9-1.1c0.8-0.1,0.9-0.1,1.5-0.3l0.6-0.4"/>
<path class="st0" d="M177.1,350.6l0,0.2l0.3-0.2l0,0l0.1-0.3l0-0.2l0.1-0.1l0.6,0.1l0.1,0l0.2-0.2l0.1-0.2l0.1,0l0.3-0.4l0.1,0.4
	l0.4,0.7l-0.7,0.5l-0.2,0l-0.5,0.3l-0.1,0l0,0l-0.3-0.2l-0.3,0.1l-0.1,0.1l-0.1,0.1l0,0.1l-0.2-0.2l-0.3-0.3l0-0.1l0-0.1l0-0.1h0
	L177.1,350.6 M198,339.1l-0.3,0h-1.1v0.3l0.1,0.3l0.5,0l0,0.2c0.1,0.6-0.2,1-0.7,1.2l-0.9,0.7l-0.2,0.2l-0.9,0.4l-0.6,0l-0.1,0.2
	l-0.1,0l-0.6,0l-0.1,0.3l0,0.1l0,0.4l-0.4,0.5l0,0.1l-0.1,0l0-0.2l-0.3-0.4l0,0l0-0.8l0-0.2l0.1-0.2l0,0l0.1-0.1l0,0l0.3,0l0.3-0.3
	l-0.3-0.4l0-0.3l-0.2,0l-0.1-0.1l-0.2-0.1l-0.1-0.1l-0.2,0v-0.1l-0.6-0.2l0-0.2l-0.2,0l0.1-0.1l0.4-0.9l0.3,0.2l0.5,0l0.3,0l0,0
	l1.1-0.5l0.2-0.1l0.6-0.2l0.3-0.3l0,0V338l1.1-0.3c0.6,0,0.9-0.3,1.3-0.7l0.6,0.5l0.2,0l0.3,0l0.1,0.2l0.2,0.3l-0.6,0.1l-0.1,0
	l-0.3,0.4l0.4,0.1l0.1,0.1l0.5,0.4h0H198 M190.6,338.9l-0.3,0.3l-0.3,0.2l0,0l-0.3,0l-0.3,0.2v0l-1.4,0.6l-0.3,0.2l-0.8,0.1
	l-0.3,0.4l-2.1,0.6l0,0.2v0l-0.5,0.1v0l-0.1,0.1l0.1,0.2v0.3l-0.2,0l-1,0.1l-0.4-0.4l0,0v0l-0.5,0.3l-0.1,0.1l0,0.1l-0.5,0H181l0,0
	l0-0.1l0-0.1l0.1-0.2l-0.1-0.1l0.3-0.3l0.4,0l-0.2-0.1v0l0,0l0.1-0.1l0.2,0.1v0l0.9-0.1l0.2,0.2l0.4,0.1l-0.1-0.4l0-0.2l0.4-0.1
	l-0.1,0.2l0.1,0l0.6-0.3l0.9-0.6l0.1,0l0.4-0.4l0.4-0.1l0-0.3l0.4-0.1l1.2-0.3l0.2-0.3l0-0.2l0.3,0l0.2-0.3h0.1l0,0l0.5-0.1l0-0.2
	l0.2-0.2l0.1-0.1l0.2-0.2l0.2-0.1l0.4-0.2l0.2-0.2l0,0.1l0,0l0,0.3l0,0.1l0,0.1v0l0,0l0,0.1l0.5-0.4l0,0l0,0l0.3,0l0.5-0.3l0.9,0.7
	l0.5-0.2l-0.5,0.8l-0.4-0.2l-0.1-0.3C191.3,337.8,190.9,338.1,190.6,338.9 M190.3,341.3L190.3,341.3L190.3,341.3L190.3,341.3
	c0.7,1.5,0.4,3.3-0.1,4.1l-0.3,0.3l-0.1,0.1l-0.4,0.3l-0.4,0.3l-0.3,0l0,0.2l0.4,0.4l-0.1,0.1l-0.3,0.2l0-0.2l-0.1,0l-0.5,0.3
	l-2-0.3l0.1-0.5l0.4-0.2l0.4-1.2l-0.3-0.2l0,0.1l0,0l0,0l0,0l0.1-0.7l0-0.1l0,0l0,0l-0.1-0.3l-0.1-0.2l0.3-0.3l-0.4-0.7l-0.1,0.1
	l-0.2-0.1l-0.3,0.1v0l0,0.1l-0.7,0.1l-0.5,0.2l-0.3-0.1l-0.1-0.2l0,0l0,0l0.3-0.3v-0.1l0.4-0.3l0,0l0.1-0.1l0.2-0.1
	c0.6-0.1,0.9-0.3,1.1-0.4l0,0.2l0.2,0l0,0l0,0l0.1,0l0,0l1.9-0.4l0.1-0.2l0.2-0.1l0,0l0.3-0.3l-0.6,0l-0.3,0l-0.6,0l0-0.1l0.1-0.1
	l0.4-0.3l0.1,0.1l1-0.2l0.2-0.1l0.1,0.2l0.3,0.3l0.1-0.2l0.6-0.1l0,0.2l0.1,0.1l-0.2,0l-0.3,0.2l-0.3,0L190.3,341.3 M185.9,345.3
	l-0.2,0l-0.4,0.5l-0.2,0.1l-0.3-0.2l0-0.2l-0.3,0l-0.2-0.2l-0.1,0l0-0.3l0-0.1l0-0.4l0.3-0.4l0.8-0.1l0.5-0.3l0,0.4l0.1,0.1l0.1,0.2
	l0,0.7L185.9,345.3 M185.4,346.6l-0.1,0.2l-0.3,0l-0.6,0.2l0,0.1l0,0.1l-0.1-0.1l-0.3,0l-0.3,0.2l0,0.3h0l-0.3,0.1l-0.2,0.2l0,0
	l0,0.2l0.1,0.6l-0.6,0.4c-0.2,0.2-0.9,0.3-1.5,0.7l-0.7,0.2l-0.3-0.9l1-0.7l1-0.8h0l0.1,0l0.1,0l0.3-0.3l0.5-0.5l0.3,0l0-0.7
	l0.4,0.2l0.2,0.3l0,0l0.5,0l0,0l0.1-0.2l0.7-0.1l0.3,0.1l0,0l-0.1,0.2L185.4,346.6 M178.2,345.7l-0.2-0.1l-0.3,0v0l-0.1,0l-0.7,0.3
	l-0.3,0l-0.3,0.2h0l-0.2,0.3l0,0l0,0.3l-0.3,0.3l0,0v0l0,0l-0.3,0.5l0,0l0,0l0,0l-0.2,0.3l0.1,0.1l-0.1-0.1l-0.3,0.6h0v0l-0.3-0.1
	l-0.2,0.1v0l-0.3-0.3l0.1-0.1l-0.1-0.5l-0.6-0.3l0.1,0l0.6-0.6l0,0l0.3,0.1l0.3-0.1l0.5-0.8l0.4,0.2l0,0l0.2,0l0-0.3l-0.1,0l0.1,0v0
	l0,0l0.8-0.5l0.3,0l0-0.3l0,0l0-0.1l0,0.1l0.2,0l0.2,0l0.3-0.5l0-0.2l0,0v0l0.2,0l0.2,0.1l0.6-0.2l0.2-0.3l0.1,0l0.6-0.1l0.3-0.3
	l0-0.1l0.8,1.1l-0.6,0.4C179.9,345,178.7,345.6,178.2,345.7 M177.9,355.5L177.9,355.5L177.9,355.5L177.9,355.5l-0.3,0.2l0,0.1
	l-0.3,0.1l-0.4,0l-0.2,0.1l-0.3-0.2l-0.8,0.4l-1.8,1.2l-1.3,0.4l0.1-0.1l1.2-0.7l0.8-0.7l0-0.2l-0.3-0.3l-0.4-0.1l0,0l0.1-0.1
	l0.6-0.4l2-1l0.3,1.3l0.3,0.2l0.3,0l0.2-0.3h0l0.2,0l0,0.1L177.9,355.5 M170.5,349.4L170.5,349.4L170.5,349.4l-0.3,0.3l-0.3,0.4
	l-0.5,0l0,0l0,0h-0.2l0,0.2l-0.1,0.1l-0.2,0.2h-0.3l0,0h0l-0.1-0.1h0l-0.1,0h0l0,0.1l-0.5-0.1l0,0l-0.7,0.2l0,0l-0.1,0.2l-0.1,0
	l-0.3,0l-0.2-0.1l-0.3,0.1l-0.4,0l-0.1-0.1l-0.3,0l0,0l0-0.2l0.7-0.4l0.1-0.2l0.1,0.1l0.2-0.1l0-0.2l0.3,0.1l0.2-0.1l0.1,0l0.1-0.3
	h0v0l0.1,0.1c0.6,0.1,0.9-0.3,1.1-0.7v-0.1l0.1,0l0.5,0.1l0.1,0.1l0.3-0.3l0.3-0.1l0.5-0.1l0.7-0.2l0.6,0.4l-0.2,0.1l0.6,0.2l0,0
	l0,0.1L170.5,349.4 M167.5,358.2l0-0.1l-0.2,0.2h0l0,0.3l0.1,0.1l0,0.1l-0.5,0.1l-0.1,0.1l-0.1,0.2l0,0.2l-0.1,0l0,0.4v0.1l-0.1,0
	l-0.1-0.1l-0.2-0.2l-0.2-0.2l-0.3-0.5l0-0.1l-0.2,0v0l0.1,0l0.4-0.3l0.2,0l0.3-0.4l0.1-0.1l0,0l0.3,0l0.3-0.1l0.1-0.1l0-0.1l0-0.1
	l0.2,0.1l0.4,0.2l0.1,0v0.1l0.1,0.1l0,0L167.5,358.2 M166.6,362.1L166.6,362.1l0.3-0.1L166.6,362.1 M182.1,340.8l0-0.7
	c0.1,0,1.8-1.1,2.6-1.4l0.3,0.2l0.3-0.1l0-0.2h0.3l0,0.1h0.5l0.2-0.1h0.1l-0.2,0.1l0.2,0.1l0.3-0.2l0.3,0l-0.2,0.1l-0.2,0.1
	l-0.1,0.1l-0.3,0l-0.7,0.3l-0.2,0l-0.2,0.3l0.3-0.2l-0.1,0.3l-0.1,0.1l-0.5,0.3l-0.2,0.1l0,0l-0.1,0.1l-0.1,0l-1.6,0.8l-0.2,0
	l-0.1,0L182.1,340.8z M195.5,337.2l-0.3,0l-0.3,0l-0.8,0.3l-0.4,0.3h-0.2l0,0l-0.1-0.2l0,0l-0.2-0.2l-0.4-0.1l0.1-0.4l0.4-0.3l0.3,0
	l0.4-0.3l0.1-0.1h0.1v0l0.2,0.1l0.3-0.3l0.5-0.1l0.3-0.5l0,0l0.3,0.1l0.2,0.1l0,0.1l0.2,0.3l0.3,0.1l-0.2,0.2l0.1,0.2l-0.1,0.2
	l0.1,0.1l0.3,0.4v0l-0.4,0.4l-0.2-0.3h-0.3L195.5,337.2z M193.6,334.7l0.5-0.2l0.1,0l0.1,0l0.4-0.3l0.3-0.4l0.3-0.4l0.3-0.6l0-0.1
	l0.1,0l0.1-0.3l0.2-0.2l0.2-0.2l0-0.2l0.2,0l0.1-0.1l0.1,0l0.1,0.1l0.3,0l0.1,0l0,0l-0.2,0.4l0,0.4l-0.3,0.4l-0.1,0.3l0.1,0.3
	l0.3,0.2l0,0.1l0.1,0.2l0,0v0l-0.3,0h-0.2l0,0l0-0.3l0-0.1l-0.2-0.2l-0.4,0.1l-0.7,0.5l0,0.2l0,0.5l-0.1,0l-0.1-0.1l-0.3-0.1l-0.5,0
	l-0.3,0.1l-0.1,0.1l-0.2,0l-0.6,0.2l-0.1,0.1h0l-0.1-0.1l-0.1-0.6L193.6,334.7 M164.4,353.2l-0.1,0.1l-0.2,0.2l-0.2,0.2l-0.2,0.1
	l-0.1,0l-0.3-0.2l-0.3-0.1l-0.3,0l-0.3,0.1l-0.2,0.2l-0.2,0.2l-0.4,0.1l-0.4-0.2l-0.7-0.1l-0.3,0.4l0.4,0.5l0,0l-0.2,0l-0.1,0.1
	l0,0.1l-0.1,0l-0.4,0.2l-0.1,0.1l-0.1,0l-0.3-0.3l0-0.2l0-0.2l-0.2-0.2l-0.2,0l-0.2,0l-0.5,0.1l-0.6,0.5l-0.2,0l0,0l-0.2-0.2l0-0.3
	l0,0l0,0l0.2,0l0.2-0.2l0,0l0.5,0.1l0.4-0.2l0.3-0.3l0.3-0.3l0.3-0.3l0-0.1l0,0l0,0.1l0,0.1l0.2,0.1v0l0.2,0.1l0,0l0.1,0.3l0.1,0.1
	l0.6-0.2l0.3-0.1l0.3-0.1l0.3-0.1l0.3-0.1l0.3-0.2l0.4-0.2l0.4-0.2l0.3-0.4v0l0.1,0l0.3,0l0.5,0l0.3,0l0.3,0l-0.1,0.4L164.4,353.2
	 M156.5,353.6l-0.2,0.1l-0.6,0.2l-0.3-0.5l2.1-1l-0.6-0.4c-0.6,0.2-2,0.7-2.3,0.9l-0.3,0.4l-0.3,0.4l0,0l-0.2,0l-0.8,0.5l-0.6,0
	l-0.5,0.1l0,0.3l-0.1,0.2l-0.3,0l-0.2,0L151,355l-0.2,0.2l-0.5,0.2L150,355l0,0l0,0l0.1,0l0.1,0l0.2-0.1l0.5-0.3l0.6-0.3l-0.1-0.1
	l0.1-0.2l0.2-0.2h0.1l0,0.1l0.1,0l0.2-0.1l0,0l0,0l0-0.1l0.2-0.2l0.9-0.7l0.1-0.4l0.2-0.1l-0.1-0.1l0.3-0.1l0.1,0.1l0-0.1l0.3-0.1
	l0.1,0l0.2-0.1l-0.1,0.1l0.2,0.1l0.2-0.3l0.2,0l0.3,0.1l0.7-0.2l0.2-0.2l0.4-0.2l0.1-0.1l0,0l0.5-0.2l0,0l0.5-0.3h0l0.6-0.2l0-0.1
	l0.1-0.2l1.3-0.5l1.9-0.7l0.3-0.1l0,0.1l0,0l1.1-0.5l0.2-0.1l0,0l-0.1,0.2v0l-0.2,0h0l-0.2,0.2l-1,1.6h0l0,0.2l-0.2,0v0l-0.2,0l0,0
	l-0.3,0l-0.4,0.4l-0.3,0.1l-0.2,0.2l-0.2,0.2l-0.3,0.3l-0.2,0.1l-0.4,0.1l-0.3,0.1l-0.7,0.3C157.9,352.7,157.1,353.2,156.5,353.6
	 M151,355L151,355L151,355z M154.3,355.3l-0.1,0.2l0,0l0,0l-0.1,0l-0.1,0.1l0,0.1l-0.2,0.1l-0.2,0.2l-0.2,0l-0.3,0.1l-0.1,0.1
	l-0.2,0.3l0,0l0.1,0.3h-0.1l-0.8,0.6v0l-0.1,0l0-0.3h-0.3l-0.1-0.1l-0.2,0v0l-0.4-0.1l-0.1,0l0-0.1l0,0l0.1-0.5l-0.1-0.1l0.3,0
	l0.1-0.3l0.3-0.1l0.8-0.4l0.4-0.3l0.2-0.1l0-0.2l0.3-0.1l0.2,0l0.2-0.2l0.1,0l0,0l0.4,0l0,0.1h0L154.3,355.3 M150.7,356.4
	L150.7,356.4L150.7,356.4L150.7,356.4 M149.3,358.9l-0.2,0.9l0.3,0l0,0.3v0.3l-0.7,0.2l-0.3,0.1l-0.7,0.1l-0.7,0.7l-0.3,0.1
	l-0.4,0.3l-0.6,0.3l-0.6,0.3l-0.6,0.2l0,0l0.3-0.2l0-0.1l0-0.2l0.1,0l0.1-0.1l0.1,0l0-0.1l0.1-0.3l-0.1-0.2l0-0.3l0-0.2l1.5-0.8
	l0.5-0.1l0.3-0.2l0.2-0.2l0.1,0l0.3,0l0.1,0l0.2-0.2l0.2-0.4l0.1-0.2l0-0.1l0.8-0.5l0.2,0.2l0.1-0.2l0.3,0.3v0.5L149.3,358.9
	 M111.4,293.2L111.4,293.2L111.4,293.2L111.4,293.2 M98.8,303.5L98.8,303.5L98.8,303.5 M94.7,301.2L94.7,301.2L94.7,301.2 M95,299.3
	L95,299.3L95,299.3z M95.1,301.7L95.1,301.7L95.1,301.7 M88.9,296L88.9,296L88.9,296z M134.8,316.6c-0.5,0-0.9-0.5-1.5-0.5l-0.9,1.3
	l0.2,0.2l-0.1,1.3l-0.2,0.3l0,0.3l0.2,0.3l0,0.1l-0.1,0.4l-0.3,0.2l-0.2,0.2l-0.2,0.2l-0.4,0.5l-0.3,0.7l-0.1,0l-0.3,0.1l-0.2,0.2
	l-0.5,0l-0.4,0.3l-0.1,0.3l0,0l0,0l-0.2,0.1l-0.1,0.1l-0.5,0.1l0,0.5l0,0l0,0l-0.5,0.2l-0.3,0.4l0-0.1l-0.2-0.3l-0.3-0.1l-0.3,0
	l-0.3,0.2l-0.1,0.5l0,0.7l0,0.2l-0.1,0.1l-0.1,0l-0.7,0.2l-0.1,0.1l-0.1,0l-0.2,0.2l0,0.2l0.1,0.1l-0.1,0.2l-0.1,0.1l-0.2,0.2
	l-0.3,0.3l-0.4,0.3l-0.3,0.1l-0.2,0.2l-0.3,0.2l-0.4,0.3l-0.3,0.5h0l-0.4,0.2l-0.3,0.1l-0.4,0.3l-0.4,0.4l-0.4,0.2l-0.5,0.2
	l-0.7,0.6c-0.5,0.5-1.1,1-1.5,1.6l0,0.1l-0.9,0.7l0,0l-0.7,0.1l-0.3,0.2c-0.8,0.6-1.9,0.8-1.7,2.2l0.1,0l0,0l-0.1,0.2l-0.1,0.1
	l-0.1,0l-1.3,0.5l-0.7,0.1l-0.4,0.1L111,337l-1,1l-0.2,0.4l-0.1,0.3l-0.1,0.2l-0.1,0.1l-0.2,0.1H109l-0.1-0.2l0.1-0.3l-0.3-0.3
	l-0.1-0.1l-0.9,0.4l-0.3,0.6l-0.1,0.1l0,0.1l-0.8,0.5l-0.1-0.1l-0.5,0.2l0,0.2l-0.2-0.1l-0.6,0.5l0,0.3l-1.4,0.3l-1.1,0.6l-0.6,0.4
	l-0.4,0.3l-0.5,0.2l-0.5,0.3l-0.5,0.4l-0.1,0.2l-0.2,0l-0.5,0.2l-0.3,0.1l-0.3,0.3l-0.2-0.1l-0.3,0l-0.3,0.1l0,0.2l-0.1-0.1l-0.6,0
	l-0.2,0.2l0.1,0.4l0,0.3l-0.1,0.2l-0.2,0.2l-0.1,0l-0.7,0.1l-0.7,0.2l-0.8,0.5l-0.1,0l-0.6,0.3l-0.4,0.4l-0.5,0.5l-0.2,0.3l-0.9,0.7
	l-0.3,0.2l-0.6,0.1l-0.3-0.2l-0.5,0l-0.4,0.2l-0.1,0.1l-0.3,0.2l-0.3,0.1l-0.2,0.2l-0.1,0.1l-0.2,0.2l-0.3,0.3l-0.4,0.1l-0.3,0
	l-0.5,0.1l-0.6,0.3l-0.6,0.3l-0.7,0.4l-0.6,0.3l-0.1,0.1l-0.3,0.2l-0.5,0.4l-0.5,0.8l-0.8,0.6l-0.1,0.3l0.1,0.1h0l-0.3,0.2l-0.6,0.4
	l0,0l-0.3,0.1c-0.6,0.6-1.4,1-2.3,1.3c-0.4,0.6-0.7,1.2-1.3,1.7l-0.3,0.2l-0.1,0l-0.5,0.2l-0.3,0.1l-0.2,0.2l-0.1,0.1L76,359
	l-0.2,0.2l-0.3,0l-0.1,0.1l0,0l-0.6-0.1l-0.4,0l-1,0.2l-0.2,0.5l-0.3,0l-1.4,0.8l-0.3,0.5l-0.2,0.1l-0.4,0.6l0,0.2l-0.1,0
	c-0.6,0.1-1.2,0.1-1.5,0.8l-0.3,0.1l-0.2,0.2l-0.2,0.2l-0.5,0.3l-0.4,0.7l0,0l0,0l-0.6-0.2l-1.2,0l-0.2,0.3l-0.7,0.2l-0.1,0.2
	l-0.8,0.3h-0.4l-0.3,0.3l-0.1,0.3l0,0l-1.2,0.1l-0.4,0.2l-0.3,0.2l-0.3,0.2l-0.1,0.1l-0.3,0.2l-0.3,0.2l-0.4,0.3l-0.5,0.3l-0.3,0.1
	l-0.7,0.7c0.7,0.5,1.3,0.4,2,0.2c-0.6,0.4-1.4,0.4-2,0.8l-1,0.7l-0.3,0l-0.3,0l0-0.2l0-0.2l0-0.4l-0.6-0.3l-0.3,0l-0.2,0.2l0,0
	l-0.2,0l-0.3,0.1l-0.6,0.6v0.2h0l-0.4-0.1l-0.3,0.1l-0.4,0.2l-0.1-0.1c-0.3-0.6-0.7-0.5-1.1-0.2l-0.2,0.3v0l-0.3-0.2l-0.3,0l-1,0.6
	l-0.1,0.1l-0.4,0.2l-0.1,0.1l-0.8,0.2l-0.2,0.2l-0.1,0.1l-0.4,0.1l-0.6,0.1l-0.2,0.1l0.2-0.1l0.1-0.1l0.2-0.3l0-0.3l-0.2-0.2h-0.3
	l-0.4,0.2l-0.4,0.1l-0.4,0.2l-0.2-0.1l-0.8-0.7c-0.7-0.4-0.5-1.7-1.6-1.8c-0.6-2.3-0.8-4.5-0.5-6.8l0-0.9l0,0l0.1-0.3l-0.1-1.5
	l-0.1-1.2l0-0.8l0-0.4l-0.2-0.6l0.1-1.3l0.4-0.6l0.2-0.3l-0.1-1l0.1-0.3l0.3-0.2c0.3-0.8,0.2-1.7,0.2-2.5c0-0.7,0.2-1.5-0.6-2
	l0.3-0.1c0.4-0.6,0.4-1.2,0.1-1.8l0,0l0.1-0.1l0.1-0.2l0-0.1l0.2-0.4l0.2-0.7c0.1-0.7-0.1-1.5,0.1-2.2l0-0.1l0.1-0.1l0-0.7l0,0v0
	l0.1,0.1l0.1-0.1c0.3-0.6,0.6-1.1,0.4-1.8l0.1-0.4l0,0h0h0l0.2-0.8l-0.4,0.1v0l0.1-0.1l0.3-1.1L46,336l0.3-1.5l0.2-0.8l-0.2-1
	l0.3-0.5l0.4-0.6c0.3-0.8,0.4-1.6,0.6-2.4l0.1-1.1c0.7,0.2,0.8-0.3,1-0.7L49,326l0.2,0l0.4-0.8l0-0.4l-0.1-0.3l0.2-0.1l0.4-0.5
	l0.1-0.3l0.2-0.6l0.2-0.3l0.4-1c0.9-2.8,2.2-5.5,3.5-8.2l0.3-0.7c0.3-0.6,0.4-1.2,0.7-1.8l0.1-0.2h0.1l0.1-0.1l0-0.4l0.2-0.6
	l0.5-0.6v0l0.1,0l0.2-0.3l0-0.1l0.1-0.1l0.3-0.8l0-0.3l0.1-0.5l0.1-0.2l0.3-0.4l0.3-0.6l0.1-0.3l0.2-0.4l0.2-0.3l0.2-0.4l0-0.3
	l-0.1-0.4l-0.1-0.2l0.1-0.1l0.7-0.9c0.5-1.4,0.7-2.9,1.6-4.1l0.4-1.3v-0.4l0-0.1l0.7-1.2l0.1-0.2l0.2-0.3l0.2-0.3l0.3-0.4l0.1-0.1
	l0.2-0.2l0.2-0.8l0-0.1c1.3-0.7,2-1.9,2.6-3.1l0.3,0l0.5-0.2l1.1-1.2l0.3-0.5l0.3-0.2l0.8-0.7c0.7-0.7,1.4-1.5,2.4-1.9l0.7-1l0,0v0
	l0.5-0.2l0.1,0l-0.1,0c0.1,1,0.6,0.5,1.1,0.4l1-0.4l1-1.2l0.3-0.2l0.3-0.2l0.1-0.1l0.3-0.3c0.7-0.5,1.1-1.4,2-1.7
	c3.7-1.2,7.2-3.4,11.2-3.7l1.1-0.3l0.3-0.2l0.2-0.3l0,0l0.1,0c0.8,0.7,1.5-0.2,2.3-0.1l0.5,0.3c-0.6,0.4-1.3,0.6-1.9,1
	c-1.4,0.9-2.6,1.9-3.8,3.1l-0.4,0.4l-1,1l-0.3,0.3l-0.1,0.1l-0.3,0.3c-0.7,0.6-1.2,1.4-1.6,2.3l-0.2,0.5l-0.2,0.7l-0.1,0.5l0.1,0.3
	l0.8,0.3l0.2,0l0.3-0.1l0.2-0.2l0-0.1l0.1,0.1l0.1,0.1l0.2,0.2l0.1,0.1l0.1,0.3l0.1,0.3l0.1,0.2l0.3,0.6l0.1,0.3l0.5,0.7l0.3,0
	l0.1,0.2l1.4-0.3l0.8-0.2l0,0c0.3,0.6,0.2,1.3,0.7,1.9l-1.5,0.3l-0.5,0.5v0v0l-0.5,0.3l-0.6,0.5l-0.3,0.3v0l0.2,0.5l0.9-0.2l0.3-0.3
	h0l0.3-0.5l0-0.3l1.6-0.6l0.5-0.2l0.1,0.1l0.7,0.3c0.7,0.3,1.5-0.2,2.2,0.3c-0.4,0.8-1.6,0.7-1.8,1.7l-0.5,0.3l-0.3,0.1l-0.4,0.1
	l-0.4,0.2l-0.1,0.3l0,0l-0.2,0.1l0,0.1l-0.1,0l-0.3,0.2l0,0.1l-0.2,0.1l-0.1,0l-0.4,0.5l-0.1,0.1l0,0l-0.3,0.3l0,0l0,0l-0.3,0.3
	l-0.3,0.3l0,0l-0.3,0.2l-0.3,0.5l-0.3,0.1l-0.2,0.1l-0.1,0.4l-0.2,0.1l0,0l-0.3,0.3l-0.2,0.1l-0.6,0.7l-0.2,0l0,0.2l-0.3,0.1l0,0
	l-0.3,0.3l-1.1,0.8l-0.3,0.3l-0.3,0.3v0l-0.3,0.3l-0.5,0.3l0,0l-0.3,0.2l-0.3,0l0,0l-0.5,0.3l0,0.1l0,0.3l0.1,0.3l0.1,0.2l0,0.1
	l0.1,0.2l0.2-0.1l0.1,0l0.2-0.2l0-0.1l0.3-0.1l0.5-0.7l0.1,0l0.1-0.1l0-0.1l0.7-0.1l0.4,0l0.2,0l0.2,0.2l0.1-0.2l0,0
	c0.4,0.1,0.2,1,1,0.6l0.2-1l0-0.1l0.4-0.3l0.5-0.6l0-0.3L88,299l0.2-0.3l-0.1-0.2l-0.2,0.2l-0.3,0.3l-0.8,0.6v0.3l-0.3,0.3l0,0l0,0
	l0.1-1.2v-0.3h0l0.3-0.3l0.9-0.3l0.2-0.6c0.6,0,0.9-0.3,1.1-0.8l0.3-0.5l0.3-0.1l0.2,0.1v0l0.5-0.7l0.1,0.1l0.3,0l0.1-0.1l0.2,0
	l0-0.2l0,0l0.2-0.2l0,0l0,0l0,0l0,0l0.1,0.2l0.1-0.1l0-0.2l0,0l0.4-0.4l0.3-0.3l0.4-0.2l0.3-0.2l0,0l0.3,0.2h0l0,0.1l0.2,0.8l0.2,0
	l0,0l1-0.2l0.4-0.3l0.4-0.2l0-0.1l0.2,0l0.1,0.1l0,0.2l-0.2,0.2l-0.1,0.1l0,0.2h0v0l-0.5,0.6l-1.2,1.1l-0.2,0l0.2-0.5l-0.5-0.1
	l-0.3,0.4v0.2l-0.2,0.1l-0.1,0.5l-0.6,0.2l0.7,0l0.3,0.6l-0.1,0.2l0,0l-0.2,0.3l-0.1,0.2l-0.2,0.2l-0.2,0l0.1,0.2l0.4,0.2l0.2,0.1
	l0,0l0.3-0.8l0.1-0.1h0l0.3-0.1l0.1-0.1v0l0.1-0.1l0.1-0.1l0.2-0.2l0.1-0.1l0.2-0.1l0.4-0.1l0,0.2l-0.1,0.7l0,0.6l0,1.1l-0.3,0.8
	l-0.3,0.3l-0.2,0.2l0.1,0.1v0.5l-0.2,0l-0.6,0.5l0,0.3l-0.2,0.3l-0.3,0l0.3,0.4l0.1-0.1v0l0,0l0.3,0.2l0.5-0.3l0.2,0.2l0.3-0.3
	l-0.5-0.3l0,0l0.1-0.2l0,0l0.2-0.3l0.2,0l0.3-0.6l0,0l0,0.3h0.3l0-0.3v0l0.3-0.3l0-0.3l0.3-0.6l-0.1-0.5l0.1-0.3l-0.1-0.1l0.1-0.5
	l0.1-0.7l0.1,0l0.1-0.1v-0.2l0.1,0l0.3-0.1l0,0l0.1-0.1l0.1-0.1l0.2-0.2L97,298l0.1-0.1l0,0l0.3,0l0.1,0l0-0.9l0,0l0.2,0.2l0.1,0
	l0.2,0.4l0,0h0.3l0.5-0.2l0-0.1l0.4,0.1l0,0l0,0.1l0.1,0.2v0.3l0.1,0.1v0.1l-0.1,0.1l0,0.3l0,0.2l-0.1-0.1l-0.4,0.4l0,0.3l-0.2,0.4
	l0.4,0.1l0.3,0.3l-0.1,0.2l-0.2,0.1h-0.2l-0.1,0.2l-0.6,0.8l0,0l0.4,0.6l0.5-0.3l0.2,0l0.9,0l0,0.3l0,0.4l0,0l-0.1,0.1l-0.1,0
	l-0.1,0.2l-0.3,0.3l-0.3,0.3l0,0l0.1-0.7l-0.3-0.1l-0.1-0.1l-0.3,0h-0.3l0.2,0.8l0.3,0.3l0,0.8l-0.3,0l-0.2,0.3l0.5,0.3l0,0l0,0
	l-0.2,0.5h0.7l0.3-0.5l0.3,0.3l0.5,0h0.1l0.3,0.5l0.5,0.1l0.1,0.2l0.2,0l0.3-0.3l0-0.2l-0.1-0.1l-0.1,0.1l0-0.1l0.4-0.3l-0.3-0.5
	l0,0l1.9-0.8l0.2-0.1l0.2-0.1l0.2-0.1h0h0h0l1-0.4l0.6,0l0.3-0.3l0-0.2l0.5-0.2l-0.2-0.1l-0.6-0.2h0l0-0.2l0.2-0.1l0.3,0l-0.5-0.5
	l0,0l0-0.1l0,0.1l0-0.3l0.2,0h0.4l0.3,0.3l0.5,0.3l0-0.5l-0.2,0l-0.1-0.3l0-0.1l-0.1-0.2l0-0.2h-0.2l-0.2,0l0-0.3l0.2-0.1l0.6-0.2
	l0.3-0.3l0-0.3l0,0l0,0v0l0,0l0,0l1.1,0.1l0,0l0.3-0.7l-0.6-0.4l-0.3-1l0.3-0.4l0.8-0.7l0.1,0l0.1-0.1l0.4-0.8l0.6-0.4l0.6-1.3
	l0.5,0.2l-0.1-0.3l-0.1-0.4l-0.9-0.1l-0.4,0.4l0,0l-1,0.5l-1.5-0.5c0.9-1.1,2.3-1.4,3.3-2.4l0-0.1l0.2,0l0,0.1l0.8,0.2l0.2,0
	l0.1,0.3l0.3,0.5c1,0.2,1.8-0.1,2.3-1.1l0-0.3l0.7,0l0.5,0.3l0.3,0l0,0.3l-1.5,0.7l0,0.3l0.7,0l0.2-0.4l0.9-0.4l0.1,0l0.1,0l0.9-0.2
	l-0.8-0.8l-0.2-0.9l-0.6,0.4l-0.8,0l0-0.3l0-0.5h0l-0.7,0l-0.1-0.2l-0.1-0.3l-0.1-0.2l0.1-0.1l1.5-0.1l0.3-0.9l-0.9,0.1l-0.9,0.3
	l-0.5-0.3l0,0c1,0,1.9-0.6,2.8-0.8l0.3-0.2l0.2,0.1c0.6-0.3,1.2-0.6,1.9-0.5l0.8,0l-0.6-0.6l-0.1,0l-0.1,0.2l0,0l-0.4-0.2l0.1-0.2
	l0-0.1l0.3-0.4l0-0.2l0.6-0.3l0.5,0l0,0.5l-0.3,0.3l0.8,0l0.5-0.3l0,0.3l0.3,0.1l0.4-0.8l0.3-1l0.2-0.3l0-0.1l0.2-0.2l0.3-0.2
	l0.2-0.3l0-0.1l0,0l0,0v0l0-0.2h0l0,0l0.1,0.2l0.5,0l0-0.1l0.3-0.1l0.3-0.4l0-0.3l-0.2-0.2l0.5-0.3l0.2-0.2l0-0.1l0,0l0.1,0l0.4-0.2
	l0.2-0.2l-0.1,0.3l0,0.3l0.1,0.3l0.3,0.1l0.6,0.1l0.1-0.2l0.1,0l0.1,0.1l0.2,0.2l-0.1,0.1l-0.1,0.2l0,0.4l0.3,0.4l0.1,0l0.3-0.2
	l0.2-0.1l0.5-0.2v0l0,0l0.3-0.1l0.6-0.3l0,0.3l0.6,0.3l0.2-0.1l0,0l0.3,0.2h0l0,0.1l-0.3,0.3l-0.3,0.3l-0.2,0.1l-0.5-0.2l-0.8,0
	l-0.1,1.2l-0.1,0.3v0l0,0l0,0.3l0,0.1l0,0.1l0.1,0.1l0,0.1l0.1,0.1l0.5-0.3c0.1-0.7,0.5-1.2,1.1-1.7l0-0.1l0.5-0.1l0.6-0.2l0.2-0.2
	l0.3-0.2l0.1-0.2l0-0.1l0.1,0l0.3,0l0.1,0.1l0.5,0.1l0.2-0.3l0,0h0l0.2,0.3l0.4,0.3l-0.1,0.1l0,0.5l0.1,0.1l-0.2,0.2l-0.1,0.3
	l0.2,0.5l0.7,0l0.5-0.7l0-0.1l0-0.1l0.2-0.1l0-0.1l0,0l0.1,0.1l0.3,0.1l0.4-0.1l0.3-0.3l0-0.3l0.5-0.2l0.1-0.2l0.1,0.2l0.6,0.2
	l0.2-0.2l0.3-0.4l0.1-0.3l0.5,0.1l0.5,0.6l0.7,1.1l0.4,0.4l0.8-0.1l-0.3,0.3l-0.4,0.4l0,0.4l0.2,0.5l-0.9,0.5l-0.3,0.2l-0.1,0.2v0.3
	l0.3,0.8l1.4,0.8l0.5,0.2l0.3,0.1l0.3,0l0.1-0.1l0,0l0,0l0.2,1l0.3,0.8l0,1v0.5l0.4,0.7l-0.6,0.1l-0.3,0.3l0.1,0.7l0.3,0.6l-0.1,0.6
	l0,0.3l0.2,0.6l-0.1,0.5l-0.1,0.3l0,0.5l0.1,0.4l0,0l0,0l-0.4-0.2l-0.4,0l-0.8,0.7l0.2,0.5l0.5,0.6l0,0.6l0.3,0.5l0.6-0.2l0,0.4l0,0
	h-0.2l-0.2,0.1l-0.1,0.2l0.2,0.2l0.2,0.2l0.2,0.2l0,0.3l0,0l-0.1-0.1l-0.3,0.1l-0.2,0.5l0.1,1l0.2,0.2l0.2,0l-0.2,0.2l-0.1,0.1
	l-0.1,0.1l-0.3,0.3l-0.1,0.1l0,0.2l-0.1,0.4l0,0.2l-0.1,0l-0.3,0.2l-0.2,0.6l0.1,0.5l0.1,0.1l-0.2,0.2l-0.1,0.3l-0.2,0l-0.4,0.3
	l-0.3,0.3l-0.1,0.3l0,0.3l0,0.4v0.6l0,0.1L140,309l-0.8,0.2l-0.2,0.2l-0.2,0.3l-0.2,0.5l-0.1,0.2l-0.1,0.3l-0.2,0.5l-0.3,0.4
	l-0.5,0.4l-0.4,0.5l-0.9,0.8l0,0.5l0.5,0.2l0.3-0.2l0.6-0.3l0.1-0.1l-0.3,0.5l-0.2,0.5l-0.2,0.3l-0.1,0.3l-0.9,1.3l-0.1,0.1
	L134.8,316.6z M134.5,354.5l-0.2,0.8l-0.4,0.9l-0.8,2.4l0,0.4l0.1,0.4l-0.1,0.7l0.1,1.8c-1,0.2-1.5-0.1-2.2-0.5l0-0.2l-0.1-0.3
	l-0.3-0.9l0-0.1l-0.2-0.5l-0.1-0.3l-0.1-0.6l0.3-0.4l0.1-0.2l0.3-0.3l0.3-0.3l0.2-0.4l0-0.3l0.7-1.2l0-0.2l0.2-0.4l0.5-0.6l0.9-0.7
	l0.1,0.1l0.4,0.5l0,0.1L134.5,354.5 M33.2,361.1l-0.6,0.5l0.3,0.4l0,0l0,0l0,0.5v0l0.3,1.9l0,0h-0.1l0,0.3l0,0l0,0l0.2,0.3l0,0
	l-0.1,0.2l0.1,0.3l0,0.2l0.3,0.3l0.1,0.1l0.2,0.2l0.1,0.1l0.2,0.2l0.2,0.4l0.1,0.3l0,0.1l-0.2,0.1l-0.1,0l0,0.3l-0.1,0.2l0.1,0.4
	l0.1,0.1l0.2,0.2l0.3,0.2l0.2,0.3l0.3,0.3l0,0.5l-0.1,0.2l0,0l-0.2,0.3l-0.5-0.3l-0.3,0.1l-0.3,0.2l0,0.1l-0.1-0.1l-0.2-0.2
	l-0.3-0.5l-0.3-0.4l-0.4-0.2l-0.2,0.1l0,0l0.1-0.1l0-0.6l-0.1-0.1v0l0-0.3l-0.2,0l0.1-0.2l-0.1-0.5l-0.1-0.1l0.1,0l0.3-0.6l-0.1-0.3
	l-0.3-0.3L32,366l0,0l0.1,0l0.1-0.3l-0.1-0.1l0.1-0.5l-0.1-0.2v-0.2l-0.1-0.1h0l-0.2-0.2v0.1l-0.2-0.2l0,0l0.1-0.5l-0.2-0.3
	l-0.2-0.2l0.8,0.2l0.3-0.2l-0.3-0.8l-0.6-0.2l0.1-0.2l0-0.3l-0.1-0.6l0-0.5l0-0.5l0-0.5l0.1-0.4l0.1,0l0.1-0.3l-0.1-0.1l0-0.1
	l-0.1-0.4l0-0.2l0-0.3l0-0.1l0,0l0.1-0.3l-0.1,0v-0.1l0.2-0.3l-0.2-0.6l-0.2-0.3l-0.1-0.2l0-0.1l0.1,0l0.2-0.2l0.4,0.4l0.5-0.1
	l0.1-0.3l0-0.3l0.3,0v0v0l0.2,0.3l0.3,0.8l0.2,0l0.7-0.2l0.3-0.2l0.1,0.2l0.1,0.1l0.2,0.1l0.1,0l0.2,0.1l0,0.1l0,0l-0.2,0.3l0,0.2
	l-0.3,0.3l0,0l0,0.5l-0.3-0.2l0,0l-0.1-0.2l-0.6,0.2l-0.2,0l0.2,0.3l0.6,0.8l0.1,0.2l0,0h0l0,0l-0.4,0.6l0,0l0,0l-0.2,0l-0.1,0
	l0,0.3l-0.3,0.2L33.2,361.1 M31.6,351l0.2-0.6l0.2-0.3l0.1-0.2l0.1-0.1h0l0,0l1.4-1.1l0.3-0.2l0,0.1l-0.1,0.2l-0.3,0.3l-0.2,0.2
	l-0.2,0.4l0,0.3l0,0.2l0.2,0.5l0.2,0.3l0.7,0.1l0.2-0.1l0.1,0.2l-0.1,0l-0.2,0l-0.3,0v0.2l-0.3,0l0,0.2l-0.1,0.1l-0.1,0.3l0,0.3
	l-0.1,0.2l-0.1,0.1l-0.2,0.2L33,353l0,0.1l-0.3-0.3l-0.2,0l-0.1-0.1l-0.1-0.1l-0.4-0.4l-0.2-0.4l0-0.5L31.6,351 M55.4,271L55.4,271
	L55.4,271L55.4,271z M96,294.9l0-0.2l0.1,0l0.2-0.1h0l0.4-0.2l0.2-0.2l1.3,0l0.5,0.1l0.1,0.3l-0.3,0.3l-0.1,0.2l-0.9-0.2l-0.7,0.5
	l-0.6,0.1l-0.2-0.1L96,294.9z M106.5,296.6l0,0.2l-0.1,0l-0.3,0.4l0,0.1l-0.1,0.2l-0.3,0.2l-0.5,0.1l-0.1,0.2l0,0.1h0l-0.2,0l0,0
	l-0.2,0.2l-0.2,0.1l-0.3,0.5l-0.1,0.1l-0.4,0.4v0l-0.1,0.9v0v0h0l-0.9,0.9l-0.5,0l-0.6,0.2l0,0l-0.8,0.3v0l0,0l0,0.5v0l-0.3,0.1
	l-0.3-0.3l0.1-0.3l-0.1-0.1v-0.1l0,0l0.3-0.3l0,0l0.2-0.3l0.6-0.3l0,0l0.6-0.2l0.3,0.2l0.3,0l0.2-0.3l0.1-0.5l0-0.4l0.5,0l0-0.5h0
	l-0.3-0.2l-0.5,0.1l0,0l-0.2,0.2l-0.2,0.2l-0.1,0.1l0,0.2l0.1,0.3l-0.3,0l-0.2-0.1l0,0l0-0.1l0.1-0.5l0-0.3l0.1-0.3l0,0l0.2-0.3
	l0-0.1h0l0.1,0l0.1-0.1l0-0.1l0.2-0.1l0.2-0.3l0,0l0.1-0.1l0-0.3l0.6-0.5l0-0.1l0.4,0.2l0.3-0.3l-0.2-0.3l0.1-0.1l0,0l0.6,0.2
	l0.2-0.1l0.2-0.1l0.1-0.1l0,0l0.1-0.1l0.1-0.2l0,0l0.1-0.1l0.2-0.2l0,0.1l0.7,0.2l0,0.2h0L106,296l0,0.1l0.2-0.1l0.5,0l0.1-0.3
	l-0.1,0l0-0.3l0-0.2l0.2,0l0.2-0.1l0,0l0,0l0,0.1l0.1,0.3l0,0v0.2l-0.1,0l-0.2,0.5l-0.1-0.2L106.5,296.6 M107.9,299L107.9,299
	L107.9,299L107.9,299 M110.9,288.9l-0.5,0.3l-0.4,0l0-0.4l0.9-0.8l0.8,0.1L110.9,288.9L110.9,288.9L110.9,288.9 M97.2,293.8
	L97.2,293.8l0.2-0.2l0.1-0.6l0.5-0.5l0.3,0.2l0.5,0.2l0.2-0.5l0.1,0l0.4-0.5l1-0.4l0.1-0.3l0.7-0.7l0.1-0.1l0.3-0.2l-0.4-0.7l0,0
	l0.7-1l0.2-0.1l1-0.8l0.9-1.1l0.2-0.3l1.1-0.1l0.7-0.4l0.1-0.1l0.1-0.1l0-0.1l0,0l0-0.4l0.1-0.2l0.3,0.6l0.7,0.2v0l1.2-1.1l0.7-0.5
	l0.9-0.3l0,0l0.8,0.3l0.3,0h0.5l0.5-0.1l0.8-0.1l0.4-0.1l0.1,0l0.1-0.1l0.8-0.6l0.1,0.2l0.8-0.4l0.2,0.1l0.8-0.1l0.5-0.3l-0.1-0.2
	l0.1-0.2l-0.1-0.2c0.3-0.4,1.1-0.2,1.2-0.8l-1,0.1l0,0L117,281l-0.1,0l-0.1-0.1l-0.1-0.1l-0.2,0v0l0,0l0.2-0.2l0.1,0.1l0.9,0.1
	l0.3-0.2l0.7-0.3l0.5-0.2l0.8-0.3l0,0.1l0.5,0.1l0.2-0.1l0.2,0l0.5-0.3v0l1.9,0.7l0.2,0l-0.2,0.8l0,0.2l-0.5,0.3l-0.9,0.5l-1,0.8
	l-0.9,0.3l-0.8,0l-0.3,0.3h-0.3v0.3c-0.8-0.2-1.3,0.2-1.6,0.8l-0.2,0.2l-0.3,0.1l-0.7,0.5l-0.2,0.2l-1.1,0.5l-0.8,0.6l-1.1,0.3
	l-0.6,0.3l-0.9,0.1l-0.3,0.4l-0.9,0.9l-0.6,0.6l-0.1,0.5l-0.2,0.2l-1.1,0.8l0,0.3l1.3-0.5l-0.2,0.5l-1.1,0.3l-0.6,0l0-0.5l-0.6,0.2
	l-0.6,0.3l-0.4,0.1l-0.1,0h-0.5l-0.3,0.1l-0.5-0.1l-0.6,0.4l-0.6,0.3l0,0l0,0l-0.8,0.6c-1.1,0.4-1.1,0.4-1.5,1l1.2-0.4l0.4,0.2
	l-0.4,0.6l-0.8,0l-0.2,0l-0.3,0l-0.6,0.2h0l-0.3,0.6v0l-0.5,0.3l0,0l0,0.3l0.1,0.2l-0.5-0.2l0-0.8l0.6-0.2l-0.1-0.5l-1.2-0.2
	L97.2,293.8z M23.6,345.3L23.6,345.3L23.6,345.3 M152.9,323.9L152.9,323.9L152.9,323.9L152.9,323.9 M210.9,327.9l-0.5-0.6l-0.4-0.8
	l-1.1-0.5l-0.3,0.4c-1.1-1.1-1.1-1.1-2.2-1.4l-0.2-1.3c-0.7-0.1-1.3-0.1-2-0.2l-1.2,0.8l-0.6,0.3l-0.6-0.4l-0.5-0.1l0.1,1l0.3,0.6
	l1.1,0.7l0.1,0.7l0.2,0.5l-0.2,1.2l0,0.3l-0.4,0.2l-1.1-0.1l-0.2-0.4l-0.7-0.3l-0.6,1.2l0,0.2l-0.1,0.2l0,0l0,0.1l0,0.1l0,0.1
	l-0.2,0.6l-0.2,0.4l0.2,0.2l0,0l0.1,0.9l0.1,0l0.6-0.3l0.1-0.2l0.1,0l-0.1,0.1l0,0.3l0.6-0.2l0.3,0.2l-0.3,0.2l-0.8,0.1l-0.3,0.2
	l-0.4,0.2l-0.2,0.2l-0.2,0.3l-0.1,0.2l-0.1-0.4l-0.1-0.1h0l-0.1-0.2l0-0.3l0-0.5v-0.5l-0.1-0.6l-0.2-0.5l0.5-0.2l0.3-0.7l-0.2-0.8
	l-0.6,0.5l-0.5,0.3l0-1.3l0.6,0l0-0.5l-0.6-1.1l0.2-0.4l0.5,0l-0.6-1.2l-1.3-0.6c-0.7-0.1-1.1,0.3-1.5,0.4l-0.6-0.1l-0.8,0.7l-1,0.4
	l-0.2,0.4l-0.1,0.1l0,0.3l-0.2,0.3l-0.3,0.2l0,0l-1.1,0.9l-0.2,0.4l0.1,0.3l0,0.2v0.8l0.5-0.2l0.2,0l0.4-0.2l0.1-0.1l0.3,0l0,0
	l0.1,0.1l0.2,0.2l0,0l0,0.3v0l-0.5,0.3l-0.6,0.5l0,0l-0.4-0.2l0.2,0.7l0.2,0.6l-0.3,0.2l-0.5,0.1l-0.3,0l-0.2-0.1l0.2-0.5l0-0.8
	l-0.5,0l0,0.3l0,0.8l0.1,0.2l-0.1,0.1l-0.2,0.2l-0.3,0.6h0.5l-0.2,0.6l0.5,0.5l-0.2,1.3l-0.6-0.5l-0.8-0.9l-0.4-0.4l-0.3-0.3
	l-0.2,0.6l-0.7-0.1l-0.3,0.2l0,0.5l-0.1,0.1l0.3,0.9l0.2,0.2l0.1,0.3c-0.8,0.3-0.9,0.4-0.6,1l0.3-0.2l0.3,0l0,0.2l0.3,0.1l0.4-0.3
	l0-0.2h0.4l0.2-0.3l0.3,0l-0.1,0.2l0,0.5l-0.1,0.3l-0.1,0.3h0l-0.3,0.3v0h-0.3v0.2l-0.1,0l0,0l-0.5,0.3l0.1,0l-0.4,0.1l-0.1-0.1
	l-0.5,0l0,0l0,0l0-0.3l-0.3,0l-0.5,0.3l-0.3,0l-0.3-0.1l-0.3,0l-0.3,0.1v0l-0.5,0l-1.1,0.8l-0.5,0.3l-0.5,0.3l-1.2,0.8l-0.2,0
	l-0.3,0.2l0,0l0.3,0.2l0.7-0.4l0.4-0.2l0.3,0.6l0,0l-0.3,0.3l-0.2,0.1l-0.6,0.8l-0.3,0.3l-0.2,0.3h0l0,0L179,343l0-0.3l-0.3-0.3
	h-0.3l0-0.3l-0.8,0l0.2,0.3l-0.5,0.2l0,0.1l-0.3,0.2l-0.2,0l0,0l-0.3,0.2h0l-0.5,0.3l-0.6,0.3l-0.2,0.6l-0.3,0.3l-0.5,0.3v0.2l0,0.2
	l-0.4,0.6l-0.3,0.3l-0.5,0.3l-1.2,0.1l0.3,0.3l-0.3,0.1l-1-0.1l-0.5,0.1l-0.1,0.3l0,0.1v0l-0.1,0.2l-0.8,0.3l-0.5-0.1l-0.1,0.1
	l-0.1,0l0-0.3l-0.1,0l0.1-0.1l-0.1-0.2l-0.3-0.1l-0.4,0.3l-0.5,0.3l-0.2,0l-0.1,0l-0.3,0.2l-0.3,0.3l-1.1,0.2L165,349h0v0h-0.3
	l-0.8-0.2l0.1-0.1l0.3-0.3l-0.2-0.1l1-0.7l0.1,0l0,0l0.6-0.3l0-0.2l0,0l0.4,0.1l0.5,0.2l0.1-0.3l0.3-0.1l0.1-0.2l0.8-0.2l0.2-0.1
	l0.1,0l0,0l0.2-0.1l0,0l0,0l0.3,0l0-0.1l0.1-0.1l0.5-0.2l0.6,0l0.2,0l0,0l0.2-0.4l0.3-0.2l0-0.3l-1.1-0.6l-0.1,0.2l0,0l-0.2,0.3
	l0-0.1l0,0h0l-0.1,0l-0.1,0l-0.4,0.2l0,0.1h0l-0.1-0.1l-0.2-0.1l0,0l-0.4,0l-0.8,0.1l-0.2,0.3l-1,0.1l-0.4,0.7l-0.2,0.1l-0.1,0
	l-0.4,0.2l0,0l-0.1-0.1l0,0l-0.3,0.3l0,0l-0.2,0l0,0l-1.7,0.8l-0.5-0.1l-0.1,0.1l-0.2-0.1l-2.7,1.2v0.1l0,0h0l-0.4,0.4l-0.1,0.1l0,0
	v0l-0.1-0.1l0,0v0.1l-0.1,0l-0.2,0.1l-0.1,0l0,0l-0.1,0l0,0l-0.8,0.4h0l0,0l-4.8,2.4l-2.2,1.2l-0.7,0.1l0,0.9l0.2,0l0,0.1l-0.1,0
	l-0.6,0l-0.3,0.1l-0.2,0c-0.6-0.1-0.9,0.3-1.1,0.7l0.3,0.5l-0.1,0.4l-2,1l-0.5,0.1l0-0.4l-0.8-0.1l-0.2,0.3l-0.9,0.2l-0.6,0.3l0,0.2
	l-0.4,0.2l-0.9,0.3l-0.5,0.2l-0.5,0.3l-0.4,0l-0.3,0.2L139,359l-0.6,0.3l0,0.2l0.5,0l0,0h0.5l0.3,0.3l0.4-0.2l1.5-0.6l0.1-0.1
	l0.6-0.3l0.1-0.1l0.3-0.1l1.1-0.3l0.1-0.1l0.1,0.1l0.6,0.2l0,0l0,0l0,0.3v0.5h0l0,0l-0.3-0.1l-3,0.8l-0.5,0.5v-0.1l-0.3-0.1l0,0.1
	l-0.1,0l-0.1,0.2l-0.5,0.4v0l-0.6,0l-0.3,0h-0.3l0,0l-0.3,0.3h0l-0.5,0.1l-0.1,0l-0.2,0.3l0,0.6l0,0v0c-0.5-0.6-1.1-0.4-1.7-0.4l0,0
	l0-0.1l-0.1-0.3l-0.3-2.2l1.3-0.5l0.2-0.1l0.3-0.3l0.3-0.2l0.3-0.1l2.2-1.1l-0.4-0.3l-2,0.8l-0.2,0l-0.3,0.3l-0.3,0.2l-0.2,0.1
	l-0.3,0.1l-0.2,0.1l-0.3-0.1l-0.4-0.1l-0.1-0.2l0-0.5l-0.1-0.3l0.1-1l0.4-0.7l0.2-0.8l0.7-1.7l0.5-0.5l0.4,0.1l0.4-1.1l-0.7-0.3
	l0.2-0.4l0.4-0.5l0.5,0.1l0.2-0.4c0.3-0.6-0.4-1.1-0.1-1.7l0.1-0.2l0.2-0.3l0.2-0.2l0.2-0.4l0.1-0.3l0.2-0.4l0.2-0.3l0.7-0.9
	l0.3-0.2l0.3-1c0.6-0.7,1-1.5,1.4-2.3c0.5-1.3,1-2.5,1.9-3.6l0-0.2l0.6-1.4l0.8-1.1l0.7-1.2c0.8-0.2,0.7-1,1-1.5l0,0l0.7-1.3
	l0.7-0.6l0.3-0.3l0,0l0.5-0.8l0.1-0.2l0.3-0.8l0.6-0.8l0.4-0.2l0.1-0.6l0.3-0.3l0.2-0.3l-0.1-0.1l0,0l0.1,0.1l0.6-1.1l-0.1,0l0,0
	l0.1,0.1l0.3-0.2l-0.1-0.1l0,0l0.1,0.1l0.3-0.3l0.5-0.9l0.2-0.1l-0.2-0.1l-0.1,0.1l0,0l0.1,0l0.1-0.8l0.5-0.5l0.2-0.3
	c0.2-0.7,0.6-1.3,0.7-2c0.2-0.7,1-1.2,1.1-2c0.5-0.5,0.7-1.2,1.3-1.7c0.6-0.5,0.8-1.3,1.2-1.9c0.5-0.9,1-1.8,1.7-2.6l0-0.2l0.5-0.4
	l0.5-0.4l-0.1-0.4l0.9-1.1l0.2-0.8l0.9-0.8l0.3-0.9c1.2-1.3,2.3-2.9,3.4-4.6l0.7-0.2l0.4-1c0.1-1,1-0.4,1.4-0.8
	c0.4-0.6,0.8-1.2,1.3-1.8l0.3-0.7c0.3-0.7,0.3-1.4,0.2-2.1c-0.4-0.8-0.9-1.1-1.7-0.5l-0.6,0.7c0.1-0.6,0.5-1.7,1-2.5l-0.1-0.3
	l0.2-0.8l-0.2-1.1c0.3-1,0.6-2.1,0.9-3.1c0.2-0.8,0.8-1.4,1.1-1.9c0.3-1.2-0.1-2.3,0.1-3.4c0.1-0.7,0-1.4-0.4-2.1l-0.6-0.1l0-0.8
	l-0.8-1.2l0,0l0.1-0.5l-0.1,0l-0.3-0.4l-0.3,0.1l0.1,0.3l0,0.1l-0.2,0.6l-0.3,0.1l-0.2-0.2l-0.3-0.3l-0.3-1.3l-0.7,0.1l-0.1,0
	l-0.1,0.1l-0.1,0.2l0,0l-0.1,0.3l-0.4,0.2l-0.1,0.3l-0.1,0l0-0.1l-0.4-0.1l-1.5-0.3l0,0l-0.1,0l0,0.1l-0.3,0l-0.5,0.2l-0.6-0.1
	l-0.5,0.1l-0.9,0.6l-0.6,0l-0.4-0.2l-0.6,0.3h0l-0.6,0.1l0-0.1l-0.5,0l0,0l-0.2,0.1l-0.1,0l-0.5-0.1l-0.3-0.1
	c-0.7-0.5-1.2-1.1-2.2-1.1l-0.5-0.6l-0.3-0.5l-0.2-0.3h0l-0.3-1.1l0,0l-0.5-0.5l-0.1-0.3c-0.3-0.7-0.6-1.4-1-2l-0.3-0.2l-0.1,0
	l-0.2-0.5l0,0l0.8-0.3l0.1-0.2l0.1-1l-0.7-1.2l-0.3,0.1l-0.1,1.2l-0.2,0.2l-0.2-0.1l0-0.3l-0.4-0.8v0l-0.2-0.3l-1-0.3l0-0.2
	l-0.1-0.2l-0.3-0.3c-0.2-0.6-0.5-1.1-1-1.5l0-0.8l-0.3-0.7l-0.3-0.6l-0.1-0.2l-0.2-0.2l-0.2-0.2l-0.2-0.2l-0.2-0.3l-0.6-0.6l0,0
	l-1.1-0.7l-0.1-0.2l-0.3-0.2l0-0.1l-0.1-0.4l0-0.4l-0.2-0.4l-0.7,0l-0.4,0.5l0,0.2l-1.5,0l0,0l-0.1-0.3l-1.1-0.4l-0.5-0.1l-0.3,0
	l-0.4,0l0-0.6l-1.2-1.2l-0.1-0.4l-0.3-0.6l0,0l-1.3,0.1l-0.3-0.2l-0.1-0.5l-0.7-0.6l-0.5,0.1l-0.7-0.3l-0.2-0.3l-0.2,0v0l0,0
	l-0.3-0.2l0,0l-0.4-0.1l-1-0.4l-0.1,0v0l-0.2-0.3l-0.8,0.4l-0.4-0.2l0.1-0.5l-1.2-0.2l0.1,0.6l-0.1,0.5l-0.5,0.5l-1,0.4l-0.3,0.2
	l0.2,0.5l-0.3,0.4l-1.3,0.6l-0.2,0.2l-0.8-0.1l-0.1-0.3l-0.7-0.4l-0.8,0l-0.9,0.5l-0.3-0.1l-0.3-0.9l-1,0.2l-1.1,0l-1.1-0.7
	l-1.3,0.1c-0.6-0.3-1.2-0.4-1.9-0.6c-0.8-0.2-1.7-0.4-2.4-0.8c-0.8,0-1.6-0.1-2.4-0.1l-0.3-0.1l-0.3,0l-0.3,0.1L109,255l-0.2-0.1
	l-0.2-0.1l-0.2-0.1l-0.3-0.1l-0.3,0l-0.3,0.1l-0.3,0.1l-0.3,0l-0.5,0l-0.6-0.1l-0.3-0.1l-0.3-0.1l-0.3,0l-0.2,0.4l-0.3,0.2l-0.3,0
	l-1.1-0.2l-0.3-0.1l-1.1-0.2l-0.7,0.1l-0.5,0l-0.5-0.2l-0.3-0.1l-1.1-0.2l-0.7,1l-0.6-0.2l-0.2-0.2l-0.1-0.9l-0.6-0.2l-0.6,0.8
	l-0.1,0.5l-0.8,0l-0.3-0.1l-0.5,0.1l-0.4,0.3l-1.3,0.2l-0.2-0.1l-0.1,0.1l-0.1-0.1l-0.8-0.1l-0.3,0.2l-0.2,0.1l-0.1,0.3l-0.3-0.4
	l-0.6-0.3l0,0c-0.5-0.2-1-0.4-1.3,0.3l0,0l-0.2,0.3l-0.7-0.7l-0.5,0.1l0,0l-0.1,0.1l0.1,0.2h0l0,0.3l-0.7,0l-0.5,0.4l-0.2-0.4l0,0
	l-0.6,0.2l-0.1,0.3l-0.3,0.8l-0.5,0.3l-0.7,0l-0.3,0l-0.7-0.1l-1.2-0.1l-0.2,0.9l-0.3,0.3l0,0.2l-0.1-0.1l-0.5,0l0,0l-0.6,0h-0.3
	l-0.3-0.1l-0.6,0.2l-0.4,0.2l-0.3,0.1l0,0l0,0v0l0,0l-0.4-0.1l-0.3-0.3l-0.4-0.2l0,0l-0.3-0.1l-0.4-0.1l0-0.1l-0.3-0.1
	c-0.8-0.2-0.7,0.6-1.1,0.9l0,0.1l-0.2,0l0,0.1l-0.2,0.2l0.6,1l0.2,0l-0.1,0.2l-0.1,0.1l-0.4,0l-1.2,0.2h0l-0.8,0.1l-0.7-0.6h0
	l-0.7-0.3l0,0l-0.1,0.7l0.1,0.3l0.1,0.3l0,0.1l-0.1,0.2l-0.2,0.2l-0.6,0.6l-0.1,0.1l-0.1,0.1l-0.4,0.3l-0.3,0.1l-0.3,0.2l-0.1,0.1
	l-0.1,0l-0.1,0l-0.1,0l-0.5,0.1l0.1,0.2l-0.4,0.4l-0.2,0.1l-0.3,0.1l-0.3,0l0-0.1l-0.6,0l0,0l-0.5,0.3l0,0.1l-0.2,0l0,0.1l0,0
	l-0.2,0.2l-0.4,0.3l-0.3,0.1l-0.9,0.3l-0.3,0.1l-0.4,0.2l-0.3,0.1l-0.4,0.2l-0.3,0.1l-0.4,0.1l-0.6,0.3l-0.4,0.8l-0.2,0.2l-0.7,0.5
	l-0.8,0.4l-0.2,0.3l-0.2,0.3l-0.2,0.2l-0.8,0.2l-0.7,0.5l0,0l-0.3,0.2l-0.3,0.2l-0.6,0.4l-0.3,0l0,0.1l-0.3,0.2l-0.1,0.1l-0.3,0.1
	l0,0.1l-0.2,0l0,0.1h0l-0.2,0.3l0,0.2l-0.3,0.2l-0.4,0.2l-0.3,0.1l-0.3,0.1l-0.6,0.3l-0.3,0.2l-0.3-0.1l-0.2,0l-0.3,0.2l-0.2,0.1
	l-0.1,0l-0.3,0.1l-0.1,0.1l-0.2,0.2l-0.2,0.2l0.1,0.3l0.4,0.1h0l-0.1,0.1l-0.3,0.1c-0.8,0.2-0.7,0.9-0.8,1.5c-1,0.6-1.5,1.4-2,2.3
	l-0.2,0.5l-0.2,0.2l-0.4,0.2l-1-0.2l-0.3,0.1l0,0l-0.2,0.1l0.1,0.1h0l-0.1,0.1l0,0.1l-0.3,0.5l-0.1,0.4l0.4,1l-0.9,1.1l-1.2,0.3
	l0.2,1.1l-0.2,0.8l-0.6,0.6l-0.5,1c-1.5,2.8-2.9,5.7-3.7,8.8l-0.1,0.8l-0.1,0.1l-0.2,0.2l-0.3,0.4l-0.2,0.5l0,0.8l-0.1,0.1l-0.8,0.8
	l-0.3,1.1l-0.3,0.3l-0.5,1.1l0,0l-0.3,0.3l0,0l-0.6,1.6l-0.6,1.1l0,0l-0.2,0.9l-0.3,0.5l-0.8,1l0.2,0.6l0,0l-0.1,0.1l-0.1,0.1
	l-0.1,0.2l0,0l-0.1,0.1l-0.2,0.1l-0.2,0.2l-0.1,0.3l-0.1,0.9l-0.1,0.2l-0.2,0.3l-0.2,0.3l-0.2,0.4l-0.1,0.3l-0.1,0.3l-0.2,0.3
	l-0.1,0.2l-0.1,0.3l0,0.3l-0.1,0.7l-0.8,0.8l0,0.2l-0.3,0.1v0.2l-0.2,0.9l-0.3,0.8l-0.3,0.4l-0.2,0.5l-0.4,0.9l-0.2,0.5l-0.1,0.3
	l-0.1,1.5c-1.3,0.6-1.5,1.5-0.8,2.7l-1,0.5L26,324l-0.1,0.4l-0.2,0.3l0,1l0.3,0.1l0.7,0.4l-0.1,0.3l-0.7,0l-0.6,0.1l-0.5,0.7
	l0.9,1.2l0.4,0l0,0l-0.1,0.5l-0.1,0.8l0,0.1l0,0l-0.2,0.2l-0.1,0.3l-0.1,0.3l-0.1,0.2l-0.1,0.2l-0.1,0.1l-0.2,0.2l-0.1,0.3l-0.1,0.4
	l-0.6,1.3l-0.3,0.7l-0.4,0.4l0.2,0.8l0.5,0.1l0.3,0.5l0.1,0l0,0.8l0,0.3l0,0.5l-0.2,0.6l-0.1,0.3l0,1.6l0,0.5l0,0.5l-0.2,0.4
	l-0.8-0.1l-0.5,0l-0.4,0.9l0,0l-0.1,0.1l0.1,0.1h0l0.2,0.6l0.5,0.1l0.1,0.2v0.1l-0.3,0.6v1l-0.3,0.3l-0.4,0l-0.6,0.3l0,0.2l-0.1,0.1
	l0.1,0.2l0.3,0.1l0.3,0h0l0.8,0.1l0.3,0l0,0l0.2-0.2l0.1-0.4l0.1-0.3l0,0.1l0,0.1l0,0.1l-0.1,0.7l0,0.2l0.2,0.3l0,0l0.1,0.2
	l-0.2,0.2l-0.2,0.1l-0.1,0.4l0.1,0.3l0.2,0.4l0,0.3l0,0l0.3,0.5l0.2,0.6l-0.3,0.3l-0.5-0.1l-0.1-0.1L23,350l-0.2,0l-0.1,0.1
	l-0.1,0.5l0.2,0.3l0.3,0.2l0.2,0.1l-0.6,0.4l-0.6,0.7l-0.7,0.1l-0.2,0.5l0.4,0.3l0.3,0.4v0.1l0,0.7h0l0.3,0.1l0.2-0.2l0.1-0.2
	l0.4,0.1l-0.3,0.7l0.2,0.1l0,0.5l-0.2,1.1l-0.1,0.5l-0.4,0.2l-0.3,0.1l-0.1,0l-0.2,0l0,0.5v0l0.5,0.3l0,0l0.3,0.2l0.1,0.1l0.6,0.5
	l0,0l0.1,0.1l0.2,0l0.2,0.2l0.2,0.1l0.1,0l0,0.1l0,0.7l0.3,0.6h0l-0.1,0.2l-0.2,0.6l0,0.3v0.3l0.2,0l0,0.6l0,0l-0.3,0.4l-0.1,0.1
	l-0.1,0l-0.4,0.5l-0.1,0.3l0,0.2l1.1,1.5l0.8,0.4l0.1,0l0.2,0.2l0,0l0,0.4v0l-0.1,0.1l0,0.2l0,0.7l0,0l0,0l-0.3,0.2l-0.4,0.3l0,0.2
	c0.6,0.1,1.1,0.4,1.6,0.8l0,0.8l-0.1,0.2l-0.6,0.1l0.4,0.7l-0.7,0.8l-0.1,1.2l1.5,0.1l-0.1,1.3l0.7,0.1l-0.3,1l0.5,0.5l0.3-0.1v1.3
	l0.6,0.6l0.3,0.3l0,1.3l0.2,0.2l0,0.2l0.1,0.2l0.3-0.2l0.5-0.6l0-0.6l-0.1-0.5l1.1,0.2l0.5,1l0.1,1.2l0.2,0.1l0.4,0.2l0.7,0.9
	l0.3,0.4l0.2,0.3l0.8,0.6c0.1,0.6,0.7,0.6,1.1,0.8l0.3,0.5l0.5,0.3l0,0l0-0.5v0l-0.2-0.3l-0.3-0.2l-0.3-0.3l-0.5-0.6l-0.5-0.4
	l-0.3-0.5l-0.3-0.6l0.4,0.1l0,0l0.4,0.3h0.3l0.1,0l0.3,0.2l0,0.1l0.3,0.3l0.2,0v0c0.1,0.7,1,0.8,1,1.6l0.2,0.5l0.2,0.3l0.2,0.4
	l0.1,0.3l0.2,0.3l0.2,0.3l1.4,1.4l0.3,0.1l0.3-0.1l-0.1-0.2c-0.2-0.9,0.3-0.8,0.8-0.5l0.3,0.5l-0.3,0.9l0.8,0.2l0.3-0.3l0.1-0.2
	l0.1,0l0.1,0l0,0L42,388l0.7,0l0.9-0.2l0,0l0,0L45,388l0,0.3l0.6,0.1l0.3-0.1l0-0.2h0h0l0.5-0.6l0.3-0.4l-0.2-0.5l-0.1-1l0-1.2
	l0.5-0.3l0.4,0.5l-0.4,0.4l-0.2,0.6l0.8,0.4l0.5-0.5l0.6,0.8l-1.1,0.1l-0.2,0.2l0.5,0.7c-0.4,0.7-0.4,0.7,0.1,1.4l1.5-0.6
	c0.7,0.2,1-0.5,1.6-0.5l0.3-0.5l1.4,0c0.6,0.1,1.2,0,1.6-0.6l0.2-0.1l0.5,0.2l0.7-0.4l0.3-0.3l0.8-0.3l0.3-0.3H58
	c0.6-0.2,1-0.5,1.5-0.6l0.8-0.5l0.6,0l0.3-0.5c0.6,0.1,1.1-0.3,1.6-0.6l0.3-0.3h0l0.3-0.3l1.4-0.6c0.6-0.3,1.3-0.4,1.7-1.1l0.6-0.3
	l0.3-0.3l0.3-0.5l0.3-0.8l0,0.3l0.2,0.2l0.6,0.8l0.1,0.1l0,0l0.2,0.1l0.7,0.2l0.7-0.1l0,0l-0.3-0.5l-0.1,0l0-0.1l0.3-0.2l0.3-0.3
	l0.7-0.5c0.6-0.3,1.3-0.6,1.9-0.8l0.2-0.2l0.5-0.3l0.2-0.1l0.2,0l0.8-0.9l0,0l1.4-0.6l0.1-0.3c0.6-0.4,1-0.9,1.6-1.1l0.4-0.8
	l0.8-0.5l0.5,0l1-0.6l0.2-0.3l0-0.1c0.5-0.3,1-0.7,1.7-0.8l0.3-0.3l0.3-0.3l1.2-0.4l1-0.4l0.6-0.3l0.5-0.3l0.3-0.2l0.5-0.3l0,0
	l1.2-0.5c0.5,0.1,0.7-0.7,1.3-0.5l1-0.4l0.3-0.3l0.5-0.3l0-0.2c0.6-0.4,4.8-3.3,4.8-3.3l0.1,0h0.1l1.3-0.3l0.4-0.2l0.3-0.2l0.4-0.2
	l0.3-0.1l0.3-0.2l0.3-0.3l0.3-0.3l0.1-0.1l0,0l0.1,0l0.1-0.1l-0.1-0.1l0,0l0.2,0.1c0.6,0,1-0.5,1.6-0.7l0.6-0.3l0.3-0.2l0.3-0.1
	l0.4-0.2l0.3-0.2l0.2-0.1l0.3-0.1h0v0l0.1,0l0.2-0.1l0.4-0.2l0.3-0.1l0.1-0.1h0.2c0.7,0.2,0.8-0.2,0.9-0.7l0.6-0.4l0-0.2l0.5-0.4
	l0.9-0.4l0.9-0.5l0,0l1.6-1.1l0.7-0.3l0.7-0.3l0.1-0.1l0.1,0l0.2,0l0.1-0.1l0,0l0.1-0.1h0.1l0.1,0l0.6-0.1l0.6-0.1l0.5-0.3
	c0.5-0.2,0.9-1,1.6-0.3l0.3,0.5l-0.2,0.4l-0.4,0.6l-0.2,0.3c-0.3,0.7-0.1,1.5-0.6,2.2l-0.1,0.4l0.2,0.6l0.4,0l0,0l-0.3,0.7l-0.2,0.5
	l-0.1,0.2l-0.4,0.7l-0.1,0.3l-0.3,0l-0.2,0.3v0l-0.3,0.2l0,0.6l0.1,0.2l0.1,0.3l0.1,0.1l0.2,0.2l0.3,0.1l0.3,0.1l0.4,0.2h0.3l0.3,0
	l0.3-0.1l-0.6,1.1l-0.3-0.1l-0.3,0.2l0.2,0.5l0.1,0c-0.5,0.6-0.5,1.2,0.3,1.7l0.2,0.1l0.2,0.1l0,0.1l0.1,0l0,0l0.6,0.1l0.4,0.8
	c-0.1,0.6-0.7,1.1-0.3,1.8l1,0.8l0.5,0.7l0.1,0.7l0.3,0.2l0.3,0l0.5-0.1l-0.1,0.1l0,0.4l1,0.8l0.1,0l0.1,0.1l0.6,0.8h0l0.3,0.2
	l0,0.1l0,0l-0.1,0.2l0.2,0.1h0.1l0.1,0l-0.2,0.6l-0.1,0.1l0.1,0.1l1.1,0l0.2,0.3c0,0.6,0.4,0.9,0.8,1.1h0.5l0.3,0l0.1-0.1v0l0,0h0
	l0.1,0.2l0,0l0.2-0.1l0.3,0l0.2-0.1l0.1-0.1l0.3-0.2l0,0l0.8,0.5l0.4,0.4l0.7,0l0.3,0.4l1.6,0.4l0.1,0.4l0.2,0.3h-0.1l0.3,0.6l0,0
	l0.3,0.2h0.3l0,0.2l0.3-0.2l0-0.5l0.2,0l0,0l0.1,0l0.1,0.2c0.2,0.6,0.5,1.1,1.2,1.2c0.6,0.7,1.5,0.3,2.2,0.5l1,0.2l0,0l1.1-0.2
	c0.7-0.3,1.4,0,2.1-0.1l0.8-0.2l0.5-0.3l0.5,0.2l0.3-0.2l0.6-0.2c1-0.1,1.2-1.2,1.9-1.6h0l0.8-0.3l0.8-0.5l0.6-0.3
	c0.7-0.2,1.3-0.5,1.9-0.8l0,0l1.4-0.6l0.7-0.5l0.7-0.6l0.1-0.2l0.2-0.2l0.4-0.2l1.2-0.8c0.6-0.4,1.5-1,2.1-1.4l0.8-0.5l1.3-0.9
	l1.4-1.1c0.7-0.6,1.4-1.1,2.3-1.4l0.7-0.3l0.4-0.3c0.1-0.6,0.6-0.9,1-1.3l0.3-0.3l0,0l0.3-0.2l1.3-0.8l0.7-0.4l0.6-0.5l1.1-0.6
	l1.8-1l0.6-0.4l0.5-0.3c0.8,0,1.4-0.3,1.9-0.8l0.3-0.3l0.5,0.2l0.3-0.5l0.1-0.1l-0.1-0.2l-0.3-0.3l-0.3,0.3h0l-0.5,0.3l-0.5,0
	l-0.2,0.2l-0.3,0.1l-0.3,0.4l-0.6,0.4l-0.3-0.3h0l0,0l-0.2,0.2l0,0.3l-0.3,0l-0.6,0l-0.3-0.1l-0.2,0.1l-0.3,0.3l0.1-0.1l-0.1,0.2
	l-0.9,0.8l-0.3,0.3l-0.8,0.3l-0.6-0.3l0.1-0.5l0.1-0.3l0.2-0.1l0.5-0.3l0.4-0.2c0.6,0,1.1-0.3,1.6-0.7l0.2-0.2l0.4,0.2l0.2-0.4
	l0.1-0.1l-0.1-0.2l-0.2-0.2l-0.2,0.2h0l-0.4,0.2l-0.5,0l-0.2,0.2l-0.2,0.1l-0.2,0.3l-0.2,0.3l0-0.4l0.3-0.3l-0.3-0.5l0,0l0.1-0.1
	l0.1-0.1l0-0.1l0.2,0l0.3-0.3l0.3-0.2l0,0l0.3-0.2h0l0.1-0.1v0l0,0h0.2l0.3-0.2l0.1,0l0,0.3l0.3,0.4l1.3-0.4l0,0l0.2-0.1l0.1,0
	l0.2-0.2l0.4,0.1l0.2-0.2l0.3,0.1l0.2-0.2l0.4-0.1l0.6-0.4l0.4-0.4l0.2-0.1l2.7-1.2l0.5-0.5l0.1-0.1v0.2l0.2,0l0.1-0.1l0,0.2l0,0
	l1-0.5l0.3,0l0.1-0.1l0.2,0.1l0.1-0.1l0.7-0.4l0.1,0l0,0l0.3-0.1l0.3-0.3l0.8-0.5l0.3-0.3l-0.1-0.1l-0.3,0l-0.4,0l-0.3,0.2l0,0
	l0.1-0.3l0.1,0.1l0.2-0.3l0.6-0.4l1.8-0.4l2-0.7l0.3-1.2l-0.2,0l-0.3,0.2l-0.5,0.2l-0.7,0.2l-1.1,0.2l-0.1,0.2l-0.6,0.1l0,0l0,0
	l-0.2,0.2l-0.4,0l0,0.1l0,0.2l-0.4,0.2l-0.1-0.1l-0.8-0.1l-0.1,0.2h-0.2l-0.3,0.4l-0.1,0l-1.2,0.7l-0.4-0.3l1.2-0.6l0.3-0.3l0.1,0
	l0,0.1l0.1-0.1h0l0.1-0.1l0.1,0l0,0l0.2-0.1l0.3-0.1v-0.3h0v0l0.3-0.3l1.1-1l-0.5-0.3l0.7-0.4l0.3-0.2l0.6,0l0,0l0.3,0l0.1,0h0.1
	l0.3-0.3h0l-0.1-0.5l0.3-0.1l0,0l0.3,0.1l0.4-0.1l0.3,0l0.3-0.1l0.2-0.2l0-0.6l0-0.1l0,0l0.3-0.2l0.2,0.1l0.8,0l0.2,0.1l0.3-0.2
	l-0.4,0l0.2-0.3l-0.2,0l0-0.2l0.1,0l0.1,0l0.1,0.2l0.8-0.1l0.2-0.1l-0.3,0l0.5-0.1l0.1,0.2l-0.1,0l0.2,0.1h0l0.2,0.1l0.1-0.2
	l0.2-0.1l0.1-0.1l0.1-0.1l0.6-0.3l0.5-0.2l0.9-0.4l0.3-0.3v-0.1l0.3-0.2l0,0l0-0.3l0-0.2l0.5-0.1h0.3l0.1,0l0.6-0.5l-0.6-0.6
	l-0.2-0.5l0.3-0.2v-0.1h0.2l0,0.3l0,0.3l0.6-0.3l0.8,0.5l0.3,0.2l0-0.2l-0.3-0.8l0.2,0l0.3-0.5h0.6l0.3-0.3l-0.1-0.4l0.1-0.3l0,0
	l0.7-0.3l0,0l0,0l0,0l0.3-0.2l0.1,0l1.7-1.1l0.8-0.7l0-0.2v0l-0.1-0.1l0.1,0l0.7,0.1l0,0.1l-0.1,0.4l-0.3,0.2l0.5,0v-0.3l0.3-0.3
	l0,0l0.2-0.2l0.3,0.2l1-0.3l0.1,0.1l-0.5,0.5h-0.2l-0.3,0.2l0,0l-0.5,0.6l0.5,0l0.3-0.3l0.5-0.1l0.1,0l0.3,0l0.3-0.5l0.5-0.1
	l0.4,0.5l0.7-0.4l-0.1-0.4l0,0l0.1-0.1l0.1-0.1l0.1-0.1l0.1-0.2l0.7-0.5c0.3,0.4,0.5,0.9,1.1,0.8l0.1,0l0.1,0l0.3-0.5l0,0l0.3-0.3
	l0.3,0l0.1-0.1l0.1,0l0.1-1.1l0.5-0.1c0.1-0.6,0.4-1.1,0.2-1.7l0.2-0.5l0-0.1l0.2-0.1l0.1-0.2h0l0.2-0.3l0.3-0.3l-0.7-0.4l-0.2-0.2
	v0l-0.1-0.6l0,0l0.1-1l0.4-0.5l0.4,1l0,0l0.5,0.1l0.7-0.5l0.2-1.1c0.3-0.6,0.6-1.2,0.5-2L210.9,327.9"/>
<path d="M235.6,276.4c-0.2,3.9-0.2,8.7-0.2,13.1c0,8.1,0.1,9.9,1.6,11.9c1.5,2,4.2,3.1,7.7,3.1c4.1,0,7.3-2.1,8.5-5.2
	c0.4-1.1,0.7-2.7,0.7-6.8c0-6.6-0.1-13.2-0.5-19.8c0.7,0.1,1.5,0.3,2.3,0.3c0.8,0,1.6-0.2,2.4-0.3l-0.2,2.4
	c-0.3,4.4-0.4,14.8-0.5,19.9c-0.1,6-1.8,8.7-5.2,10.8c-2.4,1.5-5.8,2.2-8.5,2.2c-6.1,0-13.4-1.9-14.5-9.8c-0.1-0.7-0.1-2.2-0.1-2.7
	v-13.8c0-2.6-0.1-6.5-0.3-9.1c1.2,0.2,2.4,0.3,3.5,0.3c1.1,0,2.3-0.2,3.3-0.3 M266.2,293.6c0,1.4,0,5.2-0.1,6.6l-0.4,7
	c0.6-0.2,1.3-0.3,2-0.3c0.7,0,1.7,0.3,2.3,0.3c-0.3-4.7-0.4-5.2-0.5-8.1c-0.1-5.4-0.1-9.1-0.1-16c5.4,4.9,17.8,17.3,24.3,24.3
	l1.1-0.1l1,0.1c0-1.3,0-3.9,0-5c0-2.6-0.1-9.9-0.1-12.9c0-7.4,0.1-11,0.6-17.1c-0.6,0.2-1.2,0.3-2.1,0.3c-0.9,0-1.6-0.2-2.2-0.3
	c0.4,4.2,0.6,8.5,0.6,12.8v11.3c-1.1-0.9-1.6-1.3-2.5-2.2l-6-5.9c-6.1-6-10.6-10.7-15.5-16l-1.2,0.1l-1.2-0.1
	c0.1,4.7,0.1,9.5,0.1,14.2 M304.5,272.5c0.5,4.9,0.5,8.5,0.5,11.7c0,8.7,0,17-0.6,23c1.1,0,2.5-0.3,3.6-0.3c1.2,0,2.4,0.3,3.5,0.3
	c-0.4-4.1-0.5-9.6-0.5-17.1c0-5.1,0-13.9,0.6-17.6c-1.2,0.2-2.5,0.3-3.6,0.3C307.3,272.8,305.5,272.6,304.5,272.5 M333.7,299
	c-1.2-2.7-2.4-5.3-3.5-8.1c-4.2-10.7-5.1-13.4-6.5-18.4c-1.3,0.2-2.6,0.3-3.7,0.3c-1.3,0-2.9-0.1-4.1-0.3c0.5,1.1,2.8,6.4,3.3,7.6
	c0.7,1.6,3.9,9.6,4.7,11.4c3.5,8.4,3.7,9.3,6,15.8c0.7-0.2,1.1-0.3,2.3-0.3c0.9,0,1.3,0.2,1.9,0.3c2.2-6.3,4.7-12.5,7.2-18.7
	c2-4.7,5-11.7,7.2-16.1c-1.1,0.2-1.8,0.3-2.4,0.3c-0.6,0-1.2-0.1-2.3-0.3c-2,6.4-7.6,20.6-8.1,21.7 M358.9,275.7c4.7,0,5.2,0,7,0.1
	l4.8,0.3c-0.2-0.4-0.3-1.1-0.3-1.9c0-0.6,0.1-1,0.3-1.6c-3.6,0.1-7,0.3-9.3,0.3c-2.7,0-6.7-0.2-9.2-0.3c0.4,5.1,0.5,14.8,0.5,17
	c0,2.3-0.1,8.5-0.2,11.4c-0.1,2.1-0.2,4.2-0.3,6.3c3.2-0.2,6.4-0.3,9.5-0.3c3.2,0,6.3,0.1,9.3,0.3c-0.2-0.6-0.3-1.1-0.3-1.8
	c0-0.7,0.1-1.2,0.3-1.7c-4.3,0.2-10.8,0.3-12.1,0.3v-13.7c2.3,0,4.7,0.1,7,0.1c1.3,0.1,2.6,0.1,3.9,0.3c-0.2-0.4-0.3-1-0.3-1.7
	c0-0.8,0.1-1.3,0.3-1.8c-2.7,0.3-8.4,0.4-10.9,0.4 M384.3,275.2c0.8-0.1,2.6-0.3,3.6-0.3c1.7,0,3.3,0.3,4.7,1.3
	c1.8,1.3,2.1,3.1,2.1,5.3c0,3.3-1.9,7-6.9,7c-1.3,0-2.5-0.1-3.5-0.1 M392.6,290c4.6-0.9,8.8-3.7,8.8-9.4c0-2.1-0.8-4.2-2.3-5.7
	c-2.2-2.1-4.7-2.5-8-2.5c-1.2,0-7,0.3-8.4,0.3c-2.6,0-3.9-0.2-5.1-0.3c0.4,6.5,0.4,7.2,0.4,13.9c0,9.8-0.1,10.9-0.5,20.9
	c1.1-0.2,2.3-0.3,3.5-0.3c1.3,0,2.4,0.2,3.4,0.3c0-1.3-0.2-7.9-0.2-9.3v-7.2h1.2c2.7,3.8,5.9,8.3,8.5,12.3c0.8,1.2,1.9,3.1,2.6,4.2
	c1.5-0.2,2.1-0.3,4.1-0.3c1.8,0,3.1,0.2,4.5,0.3c-3.2-4-4.6-5.8-8.6-11.4c-0.8-1.1-1.9-2.7-2.6-3.8L392.6,290z M408.7,299.7
	c-0.3,2.4-0.3,3.1-1.2,5.7c1.8,0.9,5.1,2.6,9.5,2.6c9.3,0,12.9-5.9,12.9-11.1c0-1.4-0.4-4.4-2.5-6.7c-1.5-1.6-3-2.2-6.9-3.7
	c-4.5-1.7-7-2.7-7-6.4c0-3,2-5.5,6-5.5c3.2,0,5.9,1.5,6.6,4.4h0.7c0.5-1.9,0.6-2.3,1.6-4.8c-2.5-1.1-4.7-2.1-8.4-2.1
	c-9.2,0-11.8,5.7-11.8,10.1c0,4.2,1.5,6.8,6.4,9c1.4,0.6,3.8,1.5,5.2,2.1c1,0.4,4.2,1.8,4.2,5.8c0,3.6-2.6,6.3-6.6,6.3
	c-3,0-5.5-0.8-7.9-5.8 M436.8,272.5c0.5,4.9,0.5,8.5,0.5,11.7c0,8.7,0,17-0.6,23c1.1,0,2.5-0.3,3.6-0.3c1.2,0,2.4,0.3,3.5,0.3
	c-0.4-4.1-0.5-9.6-0.5-17.1c0-5.1,0-13.9,0.6-17.6c-1.2,0.2-2.5,0.3-3.6,0.3C439.6,272.8,437.8,272.6,436.8,272.5 M465.6,281.6
	c0-1.9,0.1-3.9,0.1-5.7c3.5,0,7.1,0.1,10.1,0.4c-0.2-0.8-0.3-1.3-0.3-1.8c0-0.4,0.1-1.1,0.3-1.9c-4.9,0.3-9.3,0.3-13.5,0.3
	c-3.9,0-9.5-0.1-13.5-0.3c0.2,0.6,0.3,1.3,0.3,1.9c0,0.6-0.1,1.3-0.3,1.9c2.6-0.3,7.4-0.4,7.9-0.4h2.5c0.1,2,0.1,3.7,0.1,5.6
	l0.1,14.1c0,3.8-0.3,7.7-0.5,11.6c1.8-0.2,2.6-0.3,3.4-0.3c0.6,0,2.2,0.2,3.7,0.3c-0.2-1.4-0.4-3.1-0.4-6.9 M492.6,293.1
	c-1.6,0.1-3.1,0.2-4.7,0.2c-1.8,0-3.5-0.1-5.3-0.2l5.2-12.5 M498.3,307.3c0.9-0.1,2.3-0.3,3.8-0.3c1.4,0,3.2,0.3,4,0.3
	c-2.3-4.9-5.6-12.6-7.6-17c-1.8-4.3-4.9-11.4-7.3-18.3l-1.6,0.2c-0.6,0-1.1-0.1-1.7-0.2c-1.2,4.1-4.2,10.7-9.3,22.2l-5.9,13.1
	c0.7-0.1,1.4-0.3,2.3-0.3c0.8,0,1.8,0.2,2.4,0.3c0.8-2.9,2.4-7.1,4.1-11c2-0.1,4.1-0.2,6.1-0.2c2.2,0,4.3,0.1,6.5,0.2l2.1,5.4
	L498.3,307.3z M519.5,281.6c0-1.9,0.1-3.9,0.1-5.7c3.5,0,7.1,0.1,10.1,0.4c-0.2-0.8-0.3-1.3-0.3-1.8c0-0.4,0.1-1.1,0.3-1.9
	c-4.9,0.3-9.3,0.3-13.5,0.3c-3.9,0-9.5-0.1-13.5-0.3c0.2,0.6,0.3,1.3,0.3,1.9c0,0.6-0.1,1.3-0.3,1.9c2.6-0.3,7.4-0.4,7.9-0.4h2.5
	c0.1,2,0.1,3.7,0.1,5.6l0.1,14.1c0,3.8-0.3,7.7-0.5,11.6c1.8-0.2,2.6-0.3,3.4-0.3c0.6,0,2.2,0.2,3.7,0.3c-0.2-1.4-0.4-3.1-0.4-6.9
	 M235.6,338.2c0.8-0.1,2.6-0.3,3.6-0.3c1.7,0,3.3,0.3,4.7,1.3c1.8,1.3,2.1,3.1,2.1,5.3c0,3.3-1.9,7-6.9,7c-1.3,0-2.5-0.1-3.5-0.2
	 M243.9,353c4.6-0.9,8.8-3.7,8.8-9.4c0-2.1-0.8-4.2-2.3-5.7c-2.2-2.1-4.7-2.5-8-2.5c-1.2,0-7,0.3-8.4,0.3c-2.6,0-3.9-0.1-5.1-0.3
	c0.4,6.5,0.4,7.2,0.4,13.9c0,9.8-0.1,10.9-0.5,20.9c1.1-0.2,2.3-0.3,3.5-0.3c1.3,0,2.4,0.2,3.4,0.3c0-1.3-0.2-7.9-0.2-9.3v-7.2h1.2
	c2.7,3.8,5.9,8.3,8.5,12.3c0.8,1.2,1.9,3,2.6,4.2c1.5-0.2,2.1-0.3,4.1-0.3c1.8,0,3.1,0.1,4.5,0.3c-3.2-4-4.6-5.8-8.6-11.4
	c-0.8-1.1-1.9-2.7-2.6-3.8L243.9,353z M277.6,368.3c-8.7,0-12-7.8-12-15.3c0-6.9,3.2-15.4,12-15.4c8.9,0,12,7.1,12,15.4
	C289.5,360.2,286.2,368.3,277.6,368.3 M296.5,352.4c0-12.2-9.3-17.3-18.7-17.3c-10.2,0-19,5.7-19,18.5c0,11.1,8.4,17.3,18.9,17.3
	C288.8,370.9,296.5,363.7,296.5,352.4 M315.3,362c-1.2-2.7-2.4-5.3-3.5-8.1c-4.2-10.7-5.1-13.4-6.5-18.4c-1.3,0.2-2.6,0.3-3.7,0.3
	c-1.3,0-2.9-0.1-4.1-0.3c0.5,1.1,2.8,6.4,3.3,7.6c0.7,1.6,3.9,9.6,4.7,11.4c3.5,8.4,3.7,9.3,6,15.8c0.7-0.2,1.1-0.3,2.3-0.3
	c0.9,0,1.3,0.2,1.9,0.3c2.2-6.3,4.7-12.5,7.2-18.6c2-4.7,5-11.7,7.2-16.1c-1.1,0.2-1.8,0.3-2.4,0.3c-0.6,0-1.2-0.1-2.3-0.3
	c-2,6.4-7.6,20.6-8.1,21.7 M333.9,335.5c0.5,4.9,0.5,8.5,0.5,11.7c0,8.7,0,17-0.6,23c1.1,0,2.5-0.3,3.6-0.3c1.2,0,2.4,0.3,3.5,0.3
	c-0.4-4.1-0.5-9.6-0.5-17.1c0-5.1,0-13.9,0.6-17.6c-1.2,0.1-2.5,0.3-3.6,0.3C336.8,335.8,334.9,335.6,333.9,335.5 M356.5,338.2
	c0.8-0.1,2.6-0.3,3.6-0.3c1.7,0,3.3,0.3,4.7,1.3c1.8,1.3,2.1,3.1,2.1,5.3c0,3.3-1.9,7-6.9,7c-1.3,0-2.5-0.1-3.5-0.2 M364.8,353
	c4.6-0.9,8.8-3.7,8.8-9.4c0-2.1-0.8-4.2-2.3-5.7c-2.2-2.1-4.7-2.5-8-2.5c-1.2,0-7,0.3-8.4,0.3c-2.6,0-3.9-0.1-5.1-0.3
	c0.4,6.5,0.4,7.2,0.4,13.9c0,9.8-0.1,10.9-0.5,20.9c1.1-0.2,2.3-0.3,3.5-0.3c1.3,0,2.4,0.2,3.4,0.3c0-1.3-0.2-7.9-0.2-9.3v-7.2h1.2
	c2.7,3.8,5.9,8.3,8.5,12.3c0.8,1.2,1.9,3,2.6,4.2c1.5-0.2,2.1-0.3,4.1-0.3c1.8,0,3.1,0.1,4.5,0.3c-3.2-4-4.6-5.8-8.6-11.4
	c-0.8-1.1-1.9-2.7-2.6-3.8L364.8,353z M398,356.1c-1.6,0.1-3.1,0.2-4.7,0.2c-1.8,0-3.5-0.2-5.3-0.2l5.2-12.5 M403.7,370.2
	c0.9-0.1,2.3-0.3,3.7-0.3c1.4,0,3.2,0.3,4,0.3c-2.3-4.9-5.6-12.6-7.6-17c-1.8-4.3-4.9-11.4-7.3-18.3l-1.6,0.3
	c-0.6,0-1.1-0.1-1.7-0.3c-1.2,4.2-4.2,10.7-9.3,22.2l-5.9,13.1c0.7-0.1,1.4-0.3,2.3-0.3c0.8,0,1.8,0.2,2.4,0.3
	c0.8-2.9,2.4-7.1,4.1-11c2-0.1,4.1-0.2,6.1-0.2c2.2,0,4.3,0.1,6.5,0.2l2.1,5.4L403.7,370.2z M427.7,370.2c1.2-0.2,2.3-0.3,3.4-0.3
	c1.1,0,2,0.2,2.9,0.3c0-0.6-0.2-3.5-0.2-4.2c-0.1-1.8-0.1-7-0.1-9.2c0-1.8,0.2-6.5,0.3-8.7l0.1-2.3c-0.8,0.2-1.6,0.3-3.1,0.3
	c-1.5,0-2.4-0.2-3.4-0.3c0.4,3.5,0.5,9,0.5,12.6c0,1.9-0.1,3.7-0.2,6.3 M427.4,337.7c0,1.9,1.7,3.5,3.5,3.5c1.8,0,3.5-1.6,3.5-3.5
	c0-1.9-1.7-3.6-3.5-3.6C429,334.2,427.4,335.9,427.4,337.7 M467.4,362c-1.2-2.7-2.4-5.3-3.5-8.1c-4.2-10.7-5.1-13.4-6.5-18.4
	c-1.3,0.2-2.6,0.3-3.7,0.3c-1.3,0-2.9-0.1-4.1-0.3c0.5,1.1,2.8,6.4,3.3,7.6c0.7,1.6,3.9,9.6,4.7,11.4c3.5,8.4,3.7,9.3,6,15.8
	c0.7-0.2,1.1-0.3,2.3-0.3c0.9,0,1.3,0.2,1.9,0.3c2.2-6.3,4.7-12.5,7.3-18.6c2-4.7,5-11.7,7.2-16.1c-1.1,0.2-1.8,0.3-2.4,0.3
	c-0.6,0-1.2-0.1-2.3-0.3c-2,6.4-7.6,20.6-8.1,21.7 M486,335.5c0.5,4.9,0.5,8.5,0.5,11.7c0,8.7,0,17-0.6,23c1.1,0,2.5-0.3,3.6-0.3
	c1.2,0,2.4,0.3,3.5,0.3c-0.4-4.1-0.5-9.6-0.5-17.1c0-5.1,0-13.9,0.6-17.6c-1.2,0.1-2.5,0.3-3.6,0.3C488.8,335.8,487,335.6,486,335.5
	 M508.6,338.2c0.8-0.1,2.6-0.3,3.6-0.3c1.7,0,3.3,0.3,4.7,1.3c1.8,1.3,2.1,3.1,2.1,5.3c0,3.3-1.9,7-6.9,7c-1.3,0-2.5-0.1-3.5-0.2
	 M516.9,353c4.6-0.9,8.8-3.7,8.8-9.4c0-2.1-0.8-4.2-2.3-5.7c-2.2-2.1-4.7-2.5-8-2.5c-1.2,0-7,0.3-8.4,0.3c-2.6,0-3.9-0.1-5.1-0.3
	c0.4,6.5,0.4,7.2,0.4,13.9c0,9.8-0.1,10.9-0.5,20.9c1.1-0.2,2.3-0.3,3.5-0.3c1.3,0,2.4,0.2,3.4,0.3c0-1.3-0.2-7.9-0.2-9.3v-7.2h1.2
	c2.7,3.8,5.9,8.3,8.5,12.3c0.8,1.2,1.9,3,2.6,4.2c1.5-0.2,2.1-0.3,4.1-0.3c1.8,0,3.1,0.1,4.5,0.3c-3.2-4-4.6-5.8-8.6-11.4
	c-0.8-1.1-1.9-2.7-2.6-3.8L516.9,353z M551.3,335c-13.5,0-19.8,8.2-19.8,18.3c0,11.4,8.2,17.5,18.1,17.5c4.9,0,10.4-1.3,14.7-3.5
	c-0.1-1.4-0.2-2.7-0.2-4.6c0-1.4,0.1-6.7,0.4-8.5c-1.1,0.2-1.8,0.4-3.2,0.4c-1.3,0-2.5-0.2-3.6-0.4c0.2,2.5,0.3,5,0.3,7.5
	c0,0.7,0,1.1-0.2,4.6c-2,1.3-4.8,1.8-7.2,1.8c-4.6,0-7.3-2.2-9.2-4.6c-2.4-3.1-3.1-6.7-3.1-10.6c0-9.6,4.5-15.1,13-15.1
	c7.3,0,9.1,3.5,9.7,4.8h0.5l1.5-5C559.1,335.8,555.4,335,551.3,335 M572.8,335.5c0.5,4.9,0.5,8.5,0.5,11.7c0,8.7,0,17-0.6,23
	c1.1,0,2.5-0.3,3.6-0.3c1.2,0,2.4,0.3,3.5,0.3c-0.4-4.1-0.5-9.6-0.5-17.1c0-5.1,0-13.9,0.6-17.6c-1.2,0.1-2.5,0.3-3.6,0.3
	C575.6,335.8,573.7,335.6,572.8,335.5 M589,356.4c0,1.3-0.4,13-0.4,13.8c3.7-0.2,6.4-0.3,9.7-0.3c2.7,0,7.1,0.2,9.7,0.3
	c-0.2-0.7-0.3-1-0.3-1.7c0-1.2,0.1-1.5,0.3-2c-3,0.5-10.3,0.5-11.8,0.5h-0.9c-0.1-2.8-0.2-6.1-0.2-9.6c0-7.8,0.2-14.2,0.5-21.8
	c-1.3,0.2-2.3,0.3-3.5,0.3c-1.3,0-2.2-0.1-3.5-0.3c0.1,1,0.2,5.5,0.2,6.6c0.2,4.5,0.2,5,0.2,7.2 M614.1,335.5
	c0.5,4.9,0.5,8.5,0.5,11.7c0,8.7,0,17-0.6,23c1.1,0,2.5-0.3,3.6-0.3c1.2,0,2.4,0.3,3.5,0.3c-0.4-4.1-0.5-9.6-0.5-17.1
	c0-5.1,0-13.9,0.6-17.6c-1.2,0.1-2.5,0.3-3.6,0.3C616.9,335.8,615,335.6,614.1,335.5"/>
</svg>
